<svg xmlns="http://www.w3.org/2000/svg" viewBox="0 0 453.47 405.47"><defs><style>.cls-1{fill:#ffe7ef;}.cls-11,.cls-12,.cls-17,.cls-2{fill:none;}.cls-2{stroke:#d1a2cc;fill-rule:evenodd;}.cls-11,.cls-12,.cls-13,.cls-14,.cls-17,.cls-19,.cls-2,.cls-3,.cls-6,.cls-8{stroke-miterlimit:10;}.cls-3,.cls-8,.cls-9{fill:#fff;}.cls-17,.cls-19,.cls-3{stroke:#231f20;}.cls-4{font-size:36.41px;font-family:Montserrat-Bold, Montserrat Bold;font-weight:700;}.cls-4,.cls-5{fill:#231f20;}.cls-18,.cls-6{fill:#bcb9bd;}.cls-12,.cls-13,.cls-14,.cls-6,.cls-8{stroke:#000;}.cls-19,.cls-7{fill:#6040ec;}.cls-10{fill:#e5809d;}.cls-11{stroke:#263238;}.cls-13,.cls-15{fill:#ee8e01;}.cls-14,.cls-16{fill:#928c96;}</style></defs><g id="Layer_2" data-name="Layer 2"><g id="OBJECTS"><ellipse class="cls-1" cx="82.54" cy="48.94" rx="53.43" ry="48.94"/><path class="cls-1" d="M39.1,347.67s-25.85-36.55-28.2-78.48S36.51,173,96.81,172.45s96.6,17,110.7-29.23S241.36,40.07,315.31,35.31s119,39.38,128.06,93.47,12.38,162-75.05,239.72L349,384.35l-263-.78S54,368.38,39.1,347.67Z"/><path class="cls-2" d="M441,231.5a15.31,15.31,0,0,1,3.39,2.38l3.62-1.29,3.41,5.38-2.72,2.72a15.53,15.53,0,0,1,.72,4.08l3.47,1.65-1.4,6.21h-3.84a15.59,15.59,0,0,1-2.39,3.39l1.29,3.62-5.37,3.4-2.72-2.71a15.52,15.52,0,0,1-4.09.71l-1.65,3.47-6.2-1.39v-3.84a15.69,15.69,0,0,1-3.39-2.39l-3.62,1.29-3.41-5.37,2.72-2.73a15.12,15.12,0,0,1-.71-4.08l-3.47-1.65,1.39-6.21h3.84a15.12,15.12,0,0,1,2.39-3.39L421,231.13l5.37-3.4,2.72,2.71a16,16,0,0,1,4.09-.71l1.65-3.47,6.2,1.39v3.85Zm-5.47,7.3A6.82,6.82,0,1,0,440.7,247,6.81,6.81,0,0,0,435.54,238.8Z"/><path class="cls-2" d="M319.76,247.12a31.47,31.47,0,0,1,6.83,4.81l7.28-2.6,6.85,10.82-5.45,5.48a31.34,31.34,0,0,1,1.43,8.22l7,3.32-2.8,12.49h-7.73a31.47,31.47,0,0,1-4.81,6.83l2.6,7.28-10.82,6.85-5.48-5.45a31.34,31.34,0,0,1-8.22,1.43l-3.32,7-12.49-2.8v-7.73a31.47,31.47,0,0,1-6.83-4.81l-7.29,2.6L269.63,290l5.46-5.48a31.34,31.34,0,0,1-1.43-8.22l-7-3.32,2.8-12.49h7.73a31.47,31.47,0,0,1,4.81-6.83l-2.6-7.29,10.81-6.84,5.49,5.45a31.34,31.34,0,0,1,8.22-1.43l3.32-7,12.49,2.8v7.73Zm-11,14.7a13.73,13.73,0,1,0,10.4,16.4A13.73,13.73,0,0,0,308.75,261.82Z"/><path class="cls-2" d="M103.69,83.92A24.22,24.22,0,0,1,109,87.63l5.63-2L119.86,94l-4.21,4.22a24.16,24.16,0,0,1,1.1,6.35l5.39,2.56L120,116.73h-6a24,24,0,0,1-3.71,5.26l2,5.63L104,132.91l-4.23-4.21a24,24,0,0,1-6.34,1.1l-2.56,5.39L81.2,133v-6a24.22,24.22,0,0,1-5.26-3.71l-5.62,2L65,117l4.21-4.23a24,24,0,0,1-1.1-6.34l-5.39-2.56,2.16-9.63,6,0A24.18,24.18,0,0,1,74.57,89l-2-5.62,8.34-5.29,4.23,4.21a24.42,24.42,0,0,1,6.34-1.1L94,75.79,103.68,78v6ZM95.2,95.26a10.59,10.59,0,1,0,8,12.65A10.59,10.59,0,0,0,95.2,95.26Z"/><path class="cls-2" d="M132.41,215.12a19.4,19.4,0,0,1,4.19,2.95l4.47-1.59,4.2,6.63-3.35,3.37a18.89,18.89,0,0,1,.88,5l4.29,2-1.72,7.66h-4.75a18.83,18.83,0,0,1-3,4.19l1.6,4.47-6.64,4.21-3.36-3.35a19.37,19.37,0,0,1-5.05.88l-2,4.28-7.67-1.72v-4.74a19.4,19.4,0,0,1-4.19-2.95l-4.47,1.59-4.2-6.64,3.35-3.36a19.37,19.37,0,0,1-.88-5.05l-4.29-2,1.72-7.67h4.75a18.77,18.77,0,0,1,3-4.18l-1.6-4.48,6.64-4.2,3.36,3.35a19.45,19.45,0,0,1,5-.88l2-4.29,7.66,1.72v4.75Zm-6.76,9A8.42,8.42,0,1,0,132,234.21,8.42,8.42,0,0,0,125.65,224.14Z"/><path class="cls-2" d="M28.74,189.35a16.56,16.56,0,0,1,3.61,2.55l3.87-1.38,3.63,5.74L37,199.17a16.75,16.75,0,0,1,.76,4.36l3.7,1.76-1.48,6.62h-4.1a17,17,0,0,1-2.55,3.62l1.37,3.87L28.93,223,26,220.15a16.75,16.75,0,0,1-4.36.76l-1.76,3.7-6.63-1.48V219a16.52,16.52,0,0,1-3.62-2.55l-3.86,1.38-3.64-5.74,2.9-2.9a16.82,16.82,0,0,1-.76-4.36l-3.7-1.76,1.48-6.63h4.1a17.22,17.22,0,0,1,2.55-3.62L7.34,189l5.73-3.64,2.91,2.9a16.75,16.75,0,0,1,4.36-.76l1.76-3.71,6.63,1.49v4.1Zm-5.85,7.8a7.28,7.28,0,1,0,5.52,8.7A7.29,7.29,0,0,0,22.89,197.15Z"/><path class="cls-2" d="M397.94,118.64a16.52,16.52,0,0,1,3.62,2.55l3.87-1.38,3.63,5.74-2.9,2.91a16.27,16.27,0,0,1,.76,4.36l3.71,1.76-1.49,6.62H405a16.29,16.29,0,0,1-2.55,3.62l1.38,3.87-5.74,3.63-2.91-2.89a16.26,16.26,0,0,1-4.36.75l-1.76,3.71-6.62-1.49v-4.1a16.29,16.29,0,0,1-3.62-2.55L375,147.14l-3.63-5.74,2.9-2.91a15.89,15.89,0,0,1-.76-4.36l-3.71-1.76,1.49-6.62h4.1a16.52,16.52,0,0,1,2.55-3.62l-1.38-3.87,5.74-3.63,2.91,2.9a16.68,16.68,0,0,1,4.36-.76l1.76-3.71,6.62,1.49v4.1Zm-5.84,7.8a7.28,7.28,0,1,0,5.51,8.7A7.27,7.27,0,0,0,392.1,126.44Z"/><path class="cls-3" d="M235.9,174.72h41.57a9.07,9.07,0,0,1,9.07,9.07v22.72a9.06,9.06,0,0,1-8.11,9v13.75L260,215.58H235.9a9.07,9.07,0,0,1-9.07-9.07V183.79A9.07,9.07,0,0,1,235.9,174.72Z"/><text class="cls-4" transform="translate(247.36 207.32)">?</text><path class="cls-3" d="M320.82,97.27h-50a10.91,10.91,0,0,0-10.91,10.9v27.32a10.92,10.92,0,0,0,9.76,10.85v16.52L291.8,146.4h29a10.9,10.9,0,0,0,10.9-10.91V108.17A10.9,10.9,0,0,0,320.82,97.27Z"/><path d="M283.41,122.25a5,5,0,1,1-5-5A5,5,0,0,1,283.41,122.25Z"/><path d="M300.84,122.25a5,5,0,1,1-5-5A5,5,0,0,1,300.84,122.25Z"/><path d="M318.26,122.25a5,5,0,1,1-5-5A5,5,0,0,1,318.26,122.25Z"/><path class="cls-5" d="M3.34,383.42h413c5.58,0,11.17.1,16.74,0h.74a.38.38,0,0,0,0-.75H20.82c-5.58,0-11.17-.11-16.74,0H3.34a.38.38,0,0,0,0,.75Z"/><polygon class="cls-6" points="59.68 355.51 59.68 383.25 175.61 383.67 183.05 340.03 59.68 355.51"/><path class="cls-7" d="M173.42,183.79s37.38,47,58,102.52C241.85,314.36,256.69,359,256.69,359l-71.1,2.24L165.81,253l9.35-68.22"/><path d="M173.15,184.06c3.67,4.61,7.1,9.44,10.47,14.27q12.49,17.89,23.28,36.93a357,357,0,0,1,24.16,51.15c5.45,14.64,10.56,29.4,15.63,44.18q3.17,9.26,6.29,18.52,1,3.08,2.06,6.13a33.91,33.91,0,0,0,1.14,3.4c.06.14.1.3.15.44l.36-.47-24.12.76-38.16,1.2-8.82.27.36.28-1.34-7.33-3.36-18.41-4.47-24.47-4.62-25.27-3.79-20.77-2.06-11.29a5.55,5.55,0,0,1-.13-.71c0,.38,0-.16.07-.36l.71-5.22,2.93-21.35,3.43-25.05,2.1-15.32.1-.74c.07-.48-.66-.68-.72-.2l-1.5,10.93-3.29,24-3.22,23.5-1,7.41a14.7,14.7,0,0,0-.32,2.55,17.29,17.29,0,0,0,.42,2.26l1,5.66,3.47,19,4.5,24.64,4.6,25.17,3.74,20.48c.64,3.53,1.25,7.07,1.93,10.6l.09.47a.37.37,0,0,0,.36.27l24.12-.76,38.16-1.19,8.82-.28a.38.38,0,0,0,.36-.48q-3.92-11.78-7.94-23.51c-5.08-14.9-10.23-29.78-15.63-44.57a368.18,368.18,0,0,0-22.86-50.38,456.53,456.53,0,0,0-24.15-39.29c-2.76-4-5.57-8-8.47-11.92a48.76,48.76,0,0,0-4.13-5.45c-.07-.07-.12-.16-.19-.23-.3-.38-.82.15-.53.53Z"/><path class="cls-7" d="M172.15,178.42s10,7.46,23.32,55.45,13.92,132.71,13.92,132.71H49.1s6.86-76.8,8.11-91.49S71,230.71,84.34,215.22c10.16-11.74,34-34.45,34-34.45s19.68-6.62,26.38-7.66S172.15,178.42,172.15,178.42Z"/><path d="M172,178.74a5.71,5.71,0,0,0,.47.45,18.65,18.65,0,0,1,1.46,1.72,58.24,58.24,0,0,1,5.49,9.17,171.16,171.16,0,0,1,8.27,20,309.8,309.8,0,0,1,8.94,29.68c4.21,17.24,6.53,34.94,8.3,52.57,1.65,16.32,2.72,32.69,3.41,49.07q.34,8.38.56,16.77c0,1.76.08,3.53.11,5.29a17.44,17.44,0,0,0,0,2.8,2.16,2.16,0,0,1,0,.36l.37-.38H51.52a9.1,9.1,0,0,0-2.15,0,1.22,1.22,0,0,1-.27,0l.37.38q.49-5.38,1-10.78l2.25-25.26q1.29-14.6,2.59-29.18,1-11.26,2-22.53a77.32,77.32,0,0,1,1.29-9.8,110.64,110.64,0,0,1,5.27-16.84c4.8-12.28,10.95-24.55,19.26-34.86,3.24-4,6.87-7.77,10.46-11.49q6-6.24,12.2-12.31,4.88-4.8,9.8-9.56l2.58-2.48a4.78,4.78,0,0,1,.46-.44c-.27.2.13,0,.33-.07,8.23-2.61,16.44-5.7,24.94-7.34,4.18-.81,8.68.27,12.77,1.14,4.43.93,8.82,2.08,13.18,3.33l2.26.67a.37.37,0,0,0,.19-.72c-7.47-2.29-15.24-4.47-23-5.28-4-.41-7.64.53-11.49,1.59-4.92,1.35-9.78,2.87-14.63,4.44l-4.35,1.43a2.32,2.32,0,0,0-1,.57c-2.23,2.09-4.41,4.24-6.6,6.37-8,7.78-16,15.61-23.52,23.81a102.11,102.11,0,0,0-10.25,12.93,144.86,144.86,0,0,0-9.84,17.75,152.78,152.78,0,0,0-7.26,18.21,70.74,70.74,0,0,0-3.43,15c-.59,6.33-1.1,12.67-1.66,19q-1.26,14.33-2.54,28.65-1.23,13.86-2.47,27.71-.69,7.8-1.39,15.6l-.07.76a.38.38,0,0,0,.38.37H202.86c2,0,4.22.2,6.26,0h.27a.38.38,0,0,0,.38-.37c-.05-7-.28-13.93-.54-20.89-.6-16-1.57-32-3-47.93-1.65-17.81-3.83-35.65-7.67-53.12a296.69,296.69,0,0,0-8.2-29.16,208.71,208.71,0,0,0-8.71-22.55,74.65,74.65,0,0,0-6.17-11.18,13,13,0,0,0-2.89-3.5c-.07,0-.13-.11-.2-.16C172,177.8,171.58,178.46,172,178.74Z"/><path class="cls-8" d="M198.06,104.28l-14.81-3.37c-9.84-2.25-20,5.09-22.54,16.3l-5.24,23c-.15.65-.26,1.3-.35,1.94a9.23,9.23,0,0,0-.73,2.05l-3.19,14-.17.78-3.19,14A9.49,9.49,0,0,0,155,184.2l5.87,1.34a9.49,9.49,0,0,0,11.32-7.12L175,166.05l8.57,1.95c9.84,2.25,20-5.09,22.55-16.3l5.23-23C213.87,117.53,207.91,106.53,198.06,104.28Z"/><path d="M159.85,129.06s7.76-18.58,8-15.52c.35,4.37-4.94,26.9-1,29.88,5.2,4,9.59-5.48,21.35-3.22s17.15,9.53,17.22,14.46S198,164.88,193.59,167.1c-5.47,2.79-18.62-1-18.62-1s-11.7-1.93-15-9.85C156.58,148,159.85,129.06,159.85,129.06Z"/><path d="M180,129.49a3.43,3.43,0,1,0,4.1-2.58A3.43,3.43,0,0,0,180,129.49Z"/><path d="M201.94,134a2.92,2.92,0,1,0,3.5-2.2A2.92,2.92,0,0,0,201.94,134Z"/><path class="cls-9" d="M195.64,146.91s-2.79,4.51-6.42,4-5.5-5-5-8.15Z"/><path d="M195.16,146.63a9,9,0,0,1-3.74,3.43c-2.59,1.13-5-.66-6-3a7.55,7.55,0,0,1-.65-4.13l-.68.39,10,3.59,1.44.52c.68.25,1-.83.3-1.07l-10-3.6-1.44-.52a.56.56,0,0,0-.68.39,8.47,8.47,0,0,0,3,7.85,5.18,5.18,0,0,0,4.2.91,7.68,7.68,0,0,0,3.56-2.16,11.7,11.7,0,0,0,1.67-2.05A.56.56,0,0,0,195.16,146.63Z"/><polygon class="cls-10" points="195.65 129.55 192.38 140.76 198.56 138.69 195.65 129.55"/><path d="M161.05,133.62l6.83-17.36s48.33,17.58,70-2.91,6.87-33.92-1.64-34.42S215.42,88,215.42,88s10-8.65,2.74-12-17.49,2.63-23.76,9.83c0,0-32.09-10.54-47.7,6.78s-9.84,33.44,5.76,58.57l4.47-11Z"/><path class="cls-9" d="M138.42,128.86a12.09,12.09,0,1,0,14.46-9A12,12,0,0,0,138.42,128.86Z"/><path d="M156.64,134.66c.8-2.71.21-6-2.13-7.8a8.89,8.89,0,0,0-4.3-1.53c-.53-.06-.52.76,0,.83,2.19.26,4.39,1.18,5.37,3.29a7.45,7.45,0,0,1,.45,4.05,6,6,0,0,1-.19.94.42.42,0,0,0,.8.22Z"/><path class="cls-11" d="M158.65,140.17a11.94,11.94,0,0,0,1.71-15.12"/><path class="cls-12" d="M160.36,125.05a12,12,0,1,0-6.94,18.08,11.75,11.75,0,0,0,2.47-1"/><path class="cls-9" d="M132.49,176.69s-1.26,24,9.76,32.6,21.05,5.3,21.05,5.3,8.92-2,11.4-4.54c2.11-2.14,7.06-10.16,8.52-12.56-6.75-15.85-11.07-19.07-11.07-19.07l-.62-.19c-2,.9-5.15,2.56-9.11,2-6-.94-17.71-7.07-17.71-7.07-1.3.2-3.08.61-5.11,1.14Z"/><path d="M132.12,176.69a63.79,63.79,0,0,0,.25,8.85,48.7,48.7,0,0,0,4,16.56,23.86,23.86,0,0,0,15.31,12.53,22.37,22.37,0,0,0,11.79.31c4.36-1.12,9.64-2.13,12.56-5.84,1.88-2.4,3.51-5,5.14-7.57.72-1.14,1.45-2.27,2.13-3.42.28-.46.33-.53.17-1a34.15,34.15,0,0,0-1.6-3.61c-2.23-4.86-4.68-9.94-8.19-14a6.26,6.26,0,0,0-1.27-1.3c-1-.61-1.94.21-2.85.59a13.47,13.47,0,0,1-6.22,1.19c-3.16-.24-6.31-1.6-9.2-2.8-2.65-1.1-5.25-2.32-7.81-3.6a7.21,7.21,0,0,0-1.41-.72,3.4,3.4,0,0,0-1.44.17c-1.18.23-2.34.51-3.5.81-1.92.5-3.8,1.27-5.69,1.92l-1.87.64c-.46.16-.26.88.19.73l5.13-1.77c.66-.22,1.31-.47,2-.67.93-.29,1.89-.49,2.84-.7a9.65,9.65,0,0,1,2-.47,5.22,5.22,0,0,1,1.39.71c1,.51,2,1,3.09,1.49,2.71,1.28,5.46,2.49,8.28,3.5,3,1.07,6,1.91,9.23,1.3a32,32,0,0,0,4.59-1.62c.57-.19.66-.21.95,0A10.76,10.76,0,0,1,174,181a49,49,0,0,1,3.68,5.77c.85,1.52,1.64,3.08,2.41,4.65.46.94.9,1.88,1.33,2.84.22.48.44,1,.65,1.45a5.89,5.89,0,0,1,.73,1.63c0,.78-1.27,2.26-1.7,2.95-.83,1.32-1.67,2.63-2.54,3.94-1.37,2.08-2.8,4.8-4.91,6.23a26.6,26.6,0,0,1-7.81,3.11,26,26,0,0,1-8.89,1.24c-7-.44-14.38-4.13-18.24-10.06-3.11-4.78-4.48-10.59-5.22-16.17a70.79,70.79,0,0,1-.6-11.27c0-.2,0-.4,0-.61C132.89,176.21,132.14,176.21,132.12,176.69Z"/><path class="cls-7" d="M128.48,183.79l-5.3-3.61s-7,4.52-7.8,8.58-10.29,22.61,6.55,36.18,41.95,15.12,46.78,12,13.22-25.57,13.22-25.57l-1.18-8.28S152,231.75,129,184.75"/><path class="cls-7" d="M164.8,222.58c8.85-5.32,17.31-13.81,21.25-18-1.92-5.06-3.69-9.18-5.28-12.51-3.16,7.13-15.36,21.54-16.68,21.88-24.92,6.4-30.77-37.47-30.77-37.47l-10.2,2.89C124.16,213.24,152.65,229.88,164.8,222.58Z"/><path d="M165,222.9c8-4.83,15-11.3,21.33-18.08a.37.37,0,0,0,.09-.36c-1.62-4.27-3.36-8.48-5.32-12.6a.37.37,0,0,0-.64,0,52.42,52.42,0,0,1-5.81,9.27c-2.33,3.18-4.8,6.28-7.42,9.22a34.66,34.66,0,0,1-2.5,2.64,4.43,4.43,0,0,1-2.67,1,16.45,16.45,0,0,1-8.7-.92c-5.3-2.14-9-6.93-11.74-11.79a67.78,67.78,0,0,1-6-15.76q-.84-3.19-1.45-6.44c-.12-.64-.23-1.29-.33-1.93,0-.14-.13-.85-.11-.68a.38.38,0,0,0-.47-.36L123,179a.39.39,0,0,0-.27.37c.39,11.45,4,22.76,11.3,31.7,5.21,6.39,12.6,12,20.92,13.33a15,15,0,0,0,10-1.48.38.38,0,0,0-.38-.65c-5.83,3.45-13.44,1-18.85-2.07-8.18-4.7-14.38-12.48-18-21.09a55.07,55.07,0,0,1-4.21-19.74l-.28.36,10.2-2.89-.48-.36a74.83,74.83,0,0,0,7.39,24c2.62,5.05,6.24,10.06,11.44,12.68a16.81,16.81,0,0,0,8.3,1.77,12,12,0,0,0,4.26-.69,7.25,7.25,0,0,0,1.74-1.53,101.76,101.76,0,0,0,7.9-9.44,57.86,57.86,0,0,0,7.12-11h-.64c1.52,3.2,2.91,6.45,4.21,9.75.22.56,1.07,2.07.88,2.56s-.88.93-1.19,1.25c-1,1-1.93,2-2.92,2.94a94.21,94.21,0,0,1-16.82,13.51A.38.38,0,0,0,165,222.9Z"/><path d="M161.38,180s-3.66,2.64-4.12,3.77,1.44,6.53,5.05,6.37,7.3-2.07,7.09-4.39-3.81-6.41-3.81-6.41S162,179.19,161.38,180Z"/><path d="M160.48,187a519.74,519.74,0,0,1-11.36,53.44l13,.42s6.77-36.34,3-53.86C162.63,175.4,160.48,187,160.48,187Z"/><path class="cls-8" d="M140.87,174.32l8.59-8.55s3.43,4.53,5.89,7.55c4.77,5.82,8.74,6,8.74,6l-13,13.6S142.15,184.31,140.87,174.32Z"/><path class="cls-8" d="M164.09,179.35l6.65,14s3.22-8.63,3.85-11.95-1.47-7.23-1.47-7.23S168.35,178.31,164.09,179.35Z"/><rect class="cls-13" x="110.82" y="208.15" width="70.22" height="92.94" rx="10.44" transform="translate(15.97 -8.51) rotate(3.53)"/><path class="cls-14" d="M149.4,198.51a7.72,7.72,0,1,0,7.23,8.18A7.71,7.71,0,0,0,149.4,198.51Zm-.74,11.91a4.21,4.21,0,1,1,4.47-3.95A4.22,4.22,0,0,1,148.66,210.42Z"/><path class="cls-14" d="M160.68,216.37,136,214.85a5,5,0,0,1-4.68-5.3h0a5,5,0,0,1,5.3-4.68l24.68,1.53a5,5,0,0,1,4.68,5.29h0A5,5,0,0,1,160.68,216.37Z"/><path class="cls-9" d="M131.88,263.2l-1.48-4.79,21.12-8.6L171,242s4.32-2,6.49-.68.49,2.82.31,3.28-5.71,4.72-5.71,4.72L170,250.92l10.46-3.25,1.51-.55.21-3.86.1-3.07h0c1.57,1.31,4.24,9.23,4.1,9.66-.43,1.34-.9,2.39-.9,2.39s.06.17.84,1.69c.93,1.82-.53,3.92-.53,3.92l-1,.82a8.41,8.41,0,0,1,1,1.05c.82.91.3,2.89-.54,3.73s-1.14.91-1.14.91a1.1,1.1,0,0,1,1.12,1.32c-.12,1.35,0,1.75-2.1,4s-6.81,3.87-8.41,4.81-12.27,3.81-12.27,3.81l-19.66,4.57-3.14.6S132.12,265.9,131.88,263.2Z"/><path class="cls-12" d="M181.94,239.53s3.35,5.73,4,9.24c.58,3.16-1.22,3.77-4,5.16-2.43,1.22-11.15,3.89-11.15,3.89"/><path class="cls-12" d="M173.42,263.07s8.25-2.48,11-4.13c2.92-1.76,2.25-7.44.16-6.42"/><path class="cls-12" d="M185.1,258.39a3.84,3.84,0,0,1,.65,3.41c-.57,2.16-1.19,2.78-10.14,7.18"/><path class="cls-12" d="M184.32,264.2s4.09,1.71-3.81,7.46c-7,5.09-38.68,11.51-40.62,11.71s-9.49-25-9.49-25,32.13-13.13,39.22-15.87,9.07-1.47,8.72,1.07c-.29,2.14-9.58,7.78-9.58,7.78L182.21,247"/><path class="cls-7" d="M113.82,181.87s5-1.23,5.9-1.51.65,9.8.65,9.8L106.18,226.5s-4.5,6.31-7.42,9.93-12.27,16-12.27,16l-2.34,3.31-.57.84-1.06.8,34.35-4,9.27-1.19,3.12,38.78-.13,5.62s-18.72,7.49-25.34,9.6S85.27,312,74.71,313.21s-18.28,1.34-26.39.18-19-3.26-26.89-12.37-7.16-21-5.5-30.08,8.23-28.73,22.81-43.49,29-25,41.14-31S109.68,182.91,113.82,181.87Z"/><path d="M140.77,174c-7.65,2.17-15.31,4.3-22.93,6.57-4.53,1.35-9,2.71-13.44,4.37a203.55,203.55,0,0,0-27.2,12.57,158.9,158.9,0,0,0-33.13,24C33.34,231.76,24.6,244,19.35,258c-4.21,11.24-7.39,24.73-2.52,36.3,3.63,8.6,11.44,14,20.07,16.92,9.69,3.23,20.23,3.72,30.35,3.08A134.25,134.25,0,0,0,99.17,308c13.61-4.26,27.17-9.36,39.8-16.05.58-.31,1.16-.62,1.73-.95a.36.36,0,0,0,.19-.32l-2.74-35.22-.38-4.93a.38.38,0,0,0-.48-.36c-6,.86-12.11,1.67-18.18,2.47-11.51,1.51-23,3-34.59,4.13-5.21.53-10.43,1-15.67,1.24-.48,0-.48.77,0,.75,10.44-.4,20.86-1.73,31.22-3s20.64-2.59,31-4c2.16-.3,4.32-.59,6.47-.9l-.47-.36,2.37,30.54.56,7.21c.05.64,0,1.32.15,2a1.72,1.72,0,0,0,0,.39c0,.09.28-.27.13-.24a4.11,4.11,0,0,0-1,.54l-2.13,1.12q-3.81,1.95-7.71,3.7a261.6,261.6,0,0,1-27.87,10.7A154.76,154.76,0,0,1,81,311.89c-11.61,2.06-23.8,2.74-35.46.69-10.46-1.84-21.37-6.34-26.77-16.06-7.17-12.95-2.5-29.57,2.89-42.24,6.7-15.73,18.13-28.95,31.3-39.66a178.55,178.55,0,0,1,37.59-23.08A172.71,172.71,0,0,1,112.08,183c7.84-2.43,15.75-4.62,23.64-6.86l5.25-1.48a.38.38,0,0,0-.2-.73Z"/><path class="cls-7" d="M140.51,290.68l-3.12-40.15s-6.69.95-16.07,2.19l5.26,44.79C134.6,294,140.51,290.68,140.51,290.68Z"/><path d="M140.89,290.68l-2.74-35.22-.38-4.93a.38.38,0,0,0-.48-.36q-8,1.13-16,2.18c-.18,0-.4.15-.37.37l1.77,15.08L125.56,292l.65,5.53a.38.38,0,0,0,.56.33c4.72-2.11,9.41-4.34,13.93-6.84.43-.23.05-.88-.38-.64-4.52,2.49-9.21,4.72-13.93,6.83l.57.32-1.77-15.08-2.84-24.18-.65-5.53-.38.38c5.39-.72,10.79-1.44,16.17-2.21l-.47-.36,2.74,35.22.38,4.93C140.18,291.16,140.93,291.16,140.89,290.68Z"/><path d="M100.61,233.6a288.31,288.31,0,0,0-17.86,23.5c-.27.4.38.78.65.38a286.84,286.84,0,0,1,17.74-23.35c.31-.36-.22-.9-.53-.53Z"/><path class="cls-9" d="M29.41,271.15c.57-1.34,1.2-2.67,1.89-4s1.45-2.55,2.06-3.9a.94.94,0,0,0-.25-1.21.93.93,0,0,0-1.23.07,19.37,19.37,0,0,0-2.47,3.93c-.69,1.4-1.31,2.83-1.88,4.28a1,1,0,0,0,1.88.79Z"/><path class="cls-9" d="M46.69,239.42l2.55-3.64L50.48,234a8.74,8.74,0,0,0,.62-1c.19-.37.33-.78.48-1.16a.94.94,0,0,0-.44-1.08A1,1,0,0,0,50,231c-.27.25-.56.5-.81.78a12.83,12.83,0,0,0-.77,1.05l-1.2,1.79-2.48,3.68a1.14,1.14,0,0,0,.41,1.55,1.17,1.17,0,0,0,1.56-.4Z"/><path class="cls-9" d="M56.53,255.55l1.58-2.33.77-1.14a11.82,11.82,0,0,0,.69-1.26.91.91,0,0,0-.24-1.17.9.9,0,0,0-1.2.07c-.35.41-.72.82-1,1.26s-.51.77-.76,1.15l-1.59,2.38a1,1,0,0,0,1.78,1Z"/><path class="cls-9" d="M76.13,222.8l5.66-5.26a.81.81,0,0,0,0-1.12.82.82,0,0,0-1.13,0l-5.57,5.35c-.68.65.35,1.68,1,1Z"/><path class="cls-9" d="M85.24,241l2-2a13.31,13.31,0,0,0,1-1l.94-1.12a1.17,1.17,0,0,0,.33-.79,1.11,1.11,0,0,0-.33-.79,1.14,1.14,0,0,0-1.58,0l-1.09.91c-.37.32-.71.65-1.06,1l-2,2A1.27,1.27,0,0,0,85.24,241Z"/><path class="cls-9" d="M104.79,211.85c1.57-1.23,3.14-2.47,4.68-3.74a1.12,1.12,0,0,0-1.36-1.76c-1.66,1.28-3.3,2.57-4.93,3.89a1.14,1.14,0,0,0,0,1.61,1.18,1.18,0,0,0,.8.33,1.45,1.45,0,0,0,.81-.33Z"/><path class="cls-9" d="M85.89,203.68l3.17-1.74c.52-.28,1-.56,1.52-.87a13,13,0,0,0,1.59-1.17c.68-.56,0-1.71-.84-1.45a14.09,14.09,0,0,0-1.87.71c-.52.26-1,.53-1.55.81l-3.18,1.72a1.16,1.16,0,0,0-.42,1.58,1.19,1.19,0,0,0,1.58.41Z"/><path class="cls-9" d="M112.7,195.24c1.54-.65,3.06-1.35,4.55-2.12.7-.37,1.4-.74,2.09-1.14a12.45,12.45,0,0,0,2-1.58c.55-.49,0-1.6-.76-1.3a20,20,0,0,0-2.23,1c-.69.4-1.38.78-2.08,1.14q-2.05,1.08-4.19,2a1.1,1.1,0,0,0-.74,1.31,1.08,1.08,0,0,0,1.31.74Z"/><path class="cls-9" d="M102,248.8l1.6-1.14c.33-.24.63-.5.93-.76a5.35,5.35,0,0,0,.69-.88.8.8,0,0,0-.06-.9.81.81,0,0,0-.85-.29,5.06,5.06,0,0,0-1.06.41,8.24,8.24,0,0,0-.8.5l-1.56,1.15a1.16,1.16,0,0,0-.51.66,1.1,1.1,0,0,0,.11.85,1.1,1.1,0,0,0,1.51.4Z"/><path class="cls-9" d="M53.22,281.51l2.16-3.13c.36-.51.73-1,1-1.55l1-1.65a.94.94,0,0,0-.24-1.2.93.93,0,0,0-1.22.07c-.83,1.05-1.64,2.09-2.4,3.19l-2.2,3.19a1.09,1.09,0,0,0,.38,1.47,1.11,1.11,0,0,0,1.48-.39Z"/><path class="cls-9" d="M34.36,295.19c.69-.73,1.38-1.47,2.06-2.21.34-.36.63-.76.93-1.14a8.85,8.85,0,0,0,.89-1.47.77.77,0,0,0-1.06-1.06,9.08,9.08,0,0,0-1.36.93c-.37.34-.76.67-1.11,1-.69.73-1.37,1.47-2.06,2.21a1.21,1.21,0,1,0,1.71,1.71Z"/><path class="cls-9" d="M65.2,304.51l4-4.39a.7.7,0,0,0,0-1,.71.71,0,0,0-1,0l-4.07,4.35a.71.71,0,1,0,1,1Z"/><path class="cls-9" d="M80.28,278.74q1.59-1.77,3.32-3.4c.56-.53,1.12-1.06,1.69-1.58s1.09-1.21,1.63-1.8a1,1,0,0,0-1.22-1.58,16.68,16.68,0,0,0-2.16,1.36c-.63.51-1.25,1.05-1.84,1.61-1.17,1.09-2.3,2.24-3.39,3.42a1.39,1.39,0,0,0,2,2Z"/><path class="cls-9" d="M101.15,295.85l2.7-3.31c1-1.18,1.8-2.45,2.67-3.7a1.48,1.48,0,0,0-2.33-1.79c-1,1-1.94,2-2.81,3.11s-1.77,2.19-2.65,3.28a1.88,1.88,0,0,0-.5,1.21,1.71,1.71,0,0,0,2.92,1.2Z"/><path class="cls-9" d="M114,269.69l2.26-2.33.54-.56a5.89,5.89,0,0,0,.65-.84l.89-1.33a1,1,0,0,0-.15-1.19,1,1,0,0,0-1.2-.16l-1.25.9a6,6,0,0,0-.83.66l-.58.6L112,267.77a1.36,1.36,0,1,0,1.93,1.92Z"/><path class="cls-9" d="M119.37,293.49l1-1.13.22-.27a2.24,2.24,0,0,0,.27-.34c.06-.11.11-.26.16-.38s0-.1,0-.15a5,5,0,0,0,.2-.66,1.09,1.09,0,0,0-.38-1.12,1,1,0,0,0-.5-.21.66.66,0,0,0-.28,0,.82.82,0,0,0-.4.13,5.59,5.59,0,0,0-.6.3,2.22,2.22,0,0,0-.55.4c-.08.1-.16.19-.23.29l-.93,1.13a1.49,1.49,0,0,0-.42,1,1.47,1.47,0,0,0,.42,1,1.43,1.43,0,0,0,1,.41,1.41,1.41,0,0,0,1-.41Z"/><path class="cls-9" d="M64.34,326.86l1.38-1.93a9,9,0,0,0,1-2.33.87.87,0,0,0-.4-1,.92.92,0,0,0-1.07.14c-.32.24-.63.49-.94.74a6,6,0,0,0-1,1.06L62,325.48a1.33,1.33,0,0,0-.14,1,1.36,1.36,0,0,0,1.67,1,1.54,1.54,0,0,0,.82-.62Z"/><path class="cls-9" d="M91.15,319.67l1.44-2.16c.23-.36.42-.74.62-1.11l.64-1.15a1.25,1.25,0,0,0-.31-1.59,1.22,1.22,0,0,0-1.61.1l-.83,1.06c-.32.4-.66.8-.95,1.22-.49.72-1,1.46-1.45,2.19a1.42,1.42,0,0,0,.51,1.95,1.45,1.45,0,0,0,1.94-.51Z"/><path class="cls-9" d="M77,337.4l1-1.58c.16-.26.31-.52.45-.8a9.13,9.13,0,0,0,.41-1.1,1.15,1.15,0,0,0-.53-1.29,1.16,1.16,0,0,0-1.37.18l-.35.33a4.51,4.51,0,0,0-.44.54,8,8,0,0,0-.52.77c-.33.52-.65,1.05-1,1.57A1.36,1.36,0,1,0,77,337.4Z"/><path class="cls-9" d="M80.14,356.55l1.3-2.05c.21-.33.42-.67.64-1a6.36,6.36,0,0,0,.51-1.27.79.79,0,0,0-.37-.91.83.83,0,0,0-1,.12,7.75,7.75,0,0,0-.9,1c-.22.34-.43.7-.65,1l-1.28,2a1,1,0,1,0,1.73,1Z"/><path class="cls-9" d="M102.78,333.27l1.56-2.19a1.12,1.12,0,0,0,.11-.86,1.13,1.13,0,0,0-1.38-.79l-.27.12a1.18,1.18,0,0,0-.4.4l-1.56,2.18a1.12,1.12,0,0,0,1.27,1.65l.27-.11a1.18,1.18,0,0,0,.4-.4Z"/><path class="cls-9" d="M109.5,355.51l1.63-2.67.42-.68a6,6,0,0,0,.41-.89l.6-1.43a1.12,1.12,0,0,0-.52-1.27,1.15,1.15,0,0,0-1.36.17l-1,1.23a5,5,0,0,0-.57.79l-.39.7-1.52,2.73a1.3,1.3,0,1,0,2.25,1.32Z"/><path class="cls-9" d="M128.52,317.76c.57-.88,1.15-1.76,1.73-2.64s1.1-1.79,1.62-2.7a1.23,1.23,0,0,0-.44-1.68,1.25,1.25,0,0,0-1.67.44c-.63.85-1.26,1.7-1.83,2.59l-1.71,2.65a1.34,1.34,0,0,0,.47,1.82,1.38,1.38,0,0,0,1.83-.48Z"/><path class="cls-9" d="M132.2,341.8c.53-1.11,1.07-2.22,1.59-3.33s1-2.51,1.48-3.75a1.67,1.67,0,0,0-.17-1.31,1.79,1.79,0,0,0-.8-.69,1.71,1.71,0,0,0-2.12.69c-.59,1-1.24,2.08-1.77,3.15s-1,2.18-1.56,3.28a2,2,0,0,0-.2,1.49,1.94,1.94,0,0,0,3.55.47Z"/><path class="cls-9" d="M144.36,354.82l.09-.21c0,.1,0,.09,0,0l.18-.42.33-.73c.25-.52.5-1,.76-1.54.53-1,1.11-2,1.69-3a1.15,1.15,0,0,0-2-1.17,35.78,35.78,0,0,0-3.36,6.47,1.19,1.19,0,0,0,.83,1.45,1.21,1.21,0,0,0,1.45-.82Z"/><path class="cls-9" d="M157.34,315.16l1.9-3c.32-.49.65-1,.95-1.47a16.42,16.42,0,0,0,.75-1.59,1,1,0,0,0-.26-1.3,1,1,0,0,0-1.32.08c-.41.48-.86.95-1.23,1.47s-.64,1-1,1.53l-1.89,3a1.21,1.21,0,0,0,.42,1.64,1.23,1.23,0,0,0,1.64-.43Z"/><path class="cls-9" d="M185.84,309.48c.53-1,1-2,1.58-3,.25-.48.5-1,.74-1.46a6,6,0,0,0,.43-1l.24-.88a1.26,1.26,0,0,0-2.1-1.23,11.21,11.21,0,0,0-1.17,1.59c-.27.48-.52,1-.77,1.46-.52,1-1,2-1.55,3a1.51,1.51,0,1,0,2.6,1.52Z"/><path class="cls-9" d="M187.9,279.92l1.72-2.66c.57-.88,1.07-1.8,1.59-2.72a1,1,0,0,0-.34-1.31,1,1,0,0,0-1.31.35c-.59.87-1.19,1.74-1.72,2.65l-1.6,2.72a1,1,0,0,0,.35,1.31,1,1,0,0,0,1.31-.34Z"/><path class="cls-9" d="M200.24,290.49l1-1.72.25-.44a7.52,7.52,0,0,0,.32-.78c.12-.31.25-.62.37-.92l.05-.41a1.1,1.1,0,0,0-.13-.6,1.51,1.51,0,0,0-.64-.75,1.78,1.78,0,0,0-.78-.21,1.55,1.55,0,0,0-1.1.46l-.61.77c-.17.22-.36.44-.51.67l-.25.44c-.32.58-.65,1.15-1,1.73a1.81,1.81,0,0,0-.18,1.35,1.79,1.79,0,0,0,.81,1,1.77,1.77,0,0,0,1.35.18,1.79,1.79,0,0,0,1-.81Z"/><path class="cls-9" d="M192.55,251.7c.32-.75.63-1.49.95-2.23.19-.46.38-.91.56-1.37s.25-.76.36-1.15a1.24,1.24,0,0,0-2.27-.95,33.44,33.44,0,0,0-2,4.28,1.51,1.51,0,0,0-.15,1.08,1.44,1.44,0,0,0,.65.84,1.41,1.41,0,0,0,1.08.14,1.34,1.34,0,0,0,.84-.64Z"/><path class="cls-9" d="M186.81,228.49l.8-1.58.38-.76a3.06,3.06,0,0,0,.22-.49c0-.15.07-.31.1-.46a.49.49,0,0,0-.22-.56.5.5,0,0,0-.6.08l-.29.33a2.39,2.39,0,0,0-.29.46l-.39.77c-.27.52-.53,1.05-.8,1.58a.63.63,0,1,0,1.09.63Z"/><path class="cls-9" d="M220.87,305.66c1.14-3.54,2.31-7.06,3.27-10.65a1.37,1.37,0,0,0-2.65-.73c-1.33,3.47-2.44,7-3.59,10.56a1.55,1.55,0,0,0,1.07,1.89,1.57,1.57,0,0,0,1.9-1.07Z"/><path class="cls-9" d="M209.47,272.33c.48-.9,1-1.78,1.44-2.69a9.88,9.88,0,0,0,.71-1.6l.45-1.47a1.14,1.14,0,0,0-1.9-1.11l-.95,1.18a9.8,9.8,0,0,0-.94,1.46c-.49.89-.94,1.8-1.42,2.7a1.51,1.51,0,0,0,2.61,1.53Z"/><path class="cls-9" d="M220,276.46l.81-1.42a7.92,7.92,0,0,0,.37-.71,7.48,7.48,0,0,0,.37-1,1,1,0,0,0-.44-1.08,1.15,1.15,0,0,0-.48-.13,1,1,0,0,0-.68.28,8,8,0,0,0-.62.82c-.15.23-.27.46-.4.7l-.76,1.44a1.06,1.06,0,0,0,1.83,1.07Z"/><path class="cls-9" d="M206,247.27c.38-1,.76-2.07,1.13-3.1.18-.5.38-1,.55-1.5A9.62,9.62,0,0,0,208,241a1.08,1.08,0,0,0-.61-1.25,1.07,1.07,0,0,0-1.33.44,11.22,11.22,0,0,0-.87,1.69c-.2.51-.37,1-.55,1.55l-1.11,3.18a1.27,1.27,0,1,0,2.45.67Z"/><polygon class="cls-9" points="46.52 345.39 43.67 345.39 25.97 345.39 30.78 391.28 43.67 391.28 46.52 391.28 59.41 391.28 64.22 345.39 46.52 345.39"/><path class="cls-5" d="M46.52,345H26a.38.38,0,0,0-.37.37l1.62,15.49,2.59,24.71.59,5.69a.39.39,0,0,0,.38.38H59.41a.39.39,0,0,0,.38-.38l1.62-15.49L64,351.09l.6-5.7a.38.38,0,0,0-.37-.37H46.52a.38.38,0,0,0,0,.75h17.7l-.38-.38-1.62,15.49-2.59,24.71L59,391.28l.37-.37H30.78l.37.37-1.62-15.49L27,351.09l-.6-5.7-.38.38H46.52A.38.38,0,0,0,46.52,345Z"/><polygon class="cls-15" points="29.43 378.43 60.76 378.43 63.22 354.88 26.97 354.88 29.43 378.43"/><path class="cls-5" d="M29.43,378.8H60.76a.38.38,0,0,0,.37-.37l2.16-20.62.31-2.93a.38.38,0,0,0-.38-.37H27a.38.38,0,0,0-.38.37l2.16,20.62.31,2.93c.05.47.8.48.75,0l-2.16-20.62-.31-2.93-.37.38H63.22l-.37-.38L60.69,375.5l-.31,2.93.38-.38H29.43A.38.38,0,0,0,29.43,378.8Z"/><rect class="cls-16" x="27.84" y="332.51" width="34.87" height="8.29" rx="2.13"/><path class="cls-5" d="M60.57,340.42H30.51c-1.24,0-2.2-.5-2.3-1.92a23.45,23.45,0,0,1,0-3.84c.23-2.35,3.31-1.78,5-1.78H60a2.08,2.08,0,0,1,2.33,2.18c.05,1.67.6,5.17-1.76,5.36-.48,0-.48.79,0,.75,2-.16,2.51-1.74,2.51-3.48,0-1.34.36-3.33-.46-4.5-1.07-1.52-3.66-1.06-5.26-1.06H36.12c-2,0-4-.07-6.06,0a2.58,2.58,0,0,0-2.6,2.58,37.17,37.17,0,0,0,0,4c.19,2.79,2.82,2.51,4.82,2.51H60.57A.38.38,0,0,0,60.57,340.42Z"/><rect class="cls-16" x="21.8" y="337.64" width="46.94" height="11.35" rx="3.23"/><path class="cls-5" d="M65.51,348.62H47c-7.2,0-14.41.11-21.6,0a3,3,0,0,1-3.25-3.15c0-1,0-2,0-3a6.29,6.29,0,0,1,.34-3c1.19-2.16,4.89-1.5,7-1.5H64.62c1.35,0,2.66.13,3.41,1.5a6.17,6.17,0,0,1,.34,3c0,1,0,2,0,3a3,3,0,0,1-2.86,3.09c-.48,0-.48.78,0,.75a3.67,3.67,0,0,0,3.23-2,5.65,5.65,0,0,0,.38-2.64c0-1.9.47-4.58-.85-6.16-1.58-1.88-5-1.28-7.19-1.28h-28c-2.64,0-5.29-.07-7.93,0a3.69,3.69,0,0,0-3.72,3.64,33.36,33.36,0,0,0,0,5.29c.45,3.59,4.17,3.17,6.79,3.17H40.93c8,0,16.07.09,24.11,0h.47A.38.38,0,0,0,65.51,348.62Z"/><path class="cls-15" d="M304.47,279.1s-26.87,44.4-65.42,73.25c-33,24.68,15.7,41.6,25.88,42.53s34.65-39,44.77-72.27S307.24,275.62,304.47,279.1Z"/><path class="cls-5" d="M304.14,278.91c-2.58,4.27-5.42,8.38-8.3,12.45A325.35,325.35,0,0,1,273,320.18,237.92,237.92,0,0,1,238.86,352c-6.9,5.21-14.46,13.39-10.22,22.59a24.25,24.25,0,0,0,7.67,8.77,57.22,57.22,0,0,0,11.38,6.56A77.62,77.62,0,0,0,259,394c2.25.63,5.1,1.63,7.47,1.12,3.33-.72,6.19-3.63,8.44-6a93.75,93.75,0,0,0,10.22-13.32,215.58,215.58,0,0,0,20.09-39.18c5.28-13.37,10.06-28,8.52-42.59a29.94,29.94,0,0,0-3.37-11.71c-.91-1.59-2.45-3.89-4.48-4.12a1.79,1.79,0,0,0-1.64.62c-.3.37.22.9.53.53,1.07-1.29,2.92.61,3.6,1.41,2.19,2.58,3.3,6.07,4,9.32,2.82,13.35-1,27.44-5.48,40a220.13,220.13,0,0,1-18.71,39.49,133.1,133.1,0,0,1-10.39,15.15c-2.58,3.18-5.44,6.53-9,8.64a6.74,6.74,0,0,1-3.64,1.16,18.38,18.38,0,0,1-3.37-.56,70.08,70.08,0,0,1-10.08-3.16c-7.5-2.92-15.82-7-20.66-13.69A13.22,13.22,0,0,1,228.3,367c.87-4.84,4.38-8.81,8-11.94,2.72-2.38,5.71-4.45,8.53-6.73s5.84-4.85,8.65-7.39c5.52-5,10.8-10.22,15.86-15.65a319.35,319.35,0,0,0,23.75-28.8c3.92-5.35,7.73-10.8,11.25-16.43l.48-.78C305,278.88,304.39,278.5,304.14,278.91Z"/><path class="cls-15" d="M326.51,261.55s-9.78,1.21-20.2,14.9-26.6,58.45-34,104.85l2.48,12.6,28.27,2.79,80.77-3.17L401.25,366S379.3,262.22,326.51,261.55Z"/><path class="cls-5" d="M326.51,261.18a17.2,17.2,0,0,0-5,1.68,39.63,39.63,0,0,0-11.86,9.07c-5.9,6.37-9.76,14.14-13.21,22a297.28,297.28,0,0,0-11.92,33,417.44,417.44,0,0,0-10.3,41.56c-.78,4.05-1.52,8.12-2.17,12.2a11,11,0,0,0,.5,3.58l1.9,9.69a.39.39,0,0,0,.37.27l27.39,2.7a29.1,29.1,0,0,0,4.07,0l12-.47,36.19-1.42L381.82,394a9.07,9.07,0,0,0,1.95-.07c.61-.18,1-1.1,1.27-1.61l8.48-13.4,7.68-12.12a1.42,1.42,0,0,0,.36-1.09,17.46,17.46,0,0,0-.39-1.74c-1.61-6.86-3.54-13.64-5.68-20.35a249.16,249.16,0,0,0-12.71-32.32c-5.37-11.16-11.77-22-20.09-31.27-7.53-8.36-17-15.49-28.17-17.92a40.7,40.7,0,0,0-8-.9.38.38,0,0,0,0,.75c11.49.17,21.86,5.52,30.23,13.13,9.08,8.26,16,18.72,21.79,29.48a225.25,225.25,0,0,1,14.09,32.82c2.72,7.86,5.12,15.84,7.13,23.91a45.92,45.92,0,0,0,1.1,4.67c.1.28,0,0,0-.1l-.64,1-3.35,5.29-9.51,15-3.29,5.2a4.05,4.05,0,0,0-.6.94c.09-.37.51-.08,0-.15a14.06,14.06,0,0,0-2.51.09l-4.84.19-14.52.57-36.5,1.43c-7.27.29-14.58.8-21.86.86a78,78,0,0,1-8.05-.76l-17.1-1.68-3.39-.34.36.28-1.6-8.12c-.26-1.35-.63-2.73-.8-4.1a7,7,0,0,1,.23-2.06q.46-2.83,1-5.65a415.46,415.46,0,0,1,9.67-41.32,327,327,0,0,1,11.56-33.77c3.05-7.45,6.34-15.19,11.14-21.71a44.57,44.57,0,0,1,13.76-12.64,24.81,24.81,0,0,1,4.72-2.08c.43-.13.87-.25,1.31-.34.1,0,.56-.1.41-.08C327,261.87,327,261.11,326.51,261.18Z"/><path class="cls-9" d="M321.56,366l-.13,23.64-27.79-4.95a5.15,5.15,0,0,0-4.94.87c-2.29,1.93-2.33,3.05-2.56,3.75a12.27,12.27,0,0,1-2.4,4.61c-1.35,1.3-2.38,1.17-3.2.19l-.82-1s-.34-.21-.85.22-1.79.88-2.39-.1-.65-.88-.65-.88-.18-.41-.6-.06-2.16.88-3-.24a10.37,10.37,0,0,1-1.1-1.85,1.23,1.23,0,0,0-.79.06,3,3,0,0,1-3.73-2.13c-1-2.65,0-6.47.69-9s3.27-7.85,5.41-9.93a17.94,17.94,0,0,1,10-4.71c4-.35,14.83.05,19.42.29S321.56,366,321.56,366Z"/><path class="cls-17" d="M285.05,377.08s-4.67,6.92-5.72,10.84,1,6.94,2.28,7,3.24-1.19,4.35-5,3.88-5.58,5.8-5.47,31.11,5.49,31.11,5.49"/><path class="cls-17" d="M280,375.72s-4,7.5-4.62,11.53,1,6.41,1.91,6.61,2.32-1,2.32-1"/><path class="cls-17" d="M275.71,372.51s-4.26,7-4.82,11.25,0,7.28,1.57,8.5,3.28-.27,3.28-.27"/><path class="cls-17" d="M322.32,366.06s-28-1.95-37.13-1.69-13.4,4.92-15.84,9.8-3.64,11.47-2.62,13.84c1.76,4.08,4.28,1.91,4.28,1.91"/><path class="cls-15" d="M321.07,382.48l1.8-22.1s13.45.06,22-.58,21.42-2.25,25.48-2.92,4.62-1,4.62-1,1.44,0,1-1a154.65,154.65,0,0,0-10.21-18.68,85,85,0,0,1-5.59-8.89l-24.79-42.94,17.27-17.75s21,7.73,40.21,30.3,21.5,30.81,22.44,32.85,6.86,16,6.9,25.64-.68,29.19-24.41,41.5c0,0-5.21,3.88-18.76,5.49S348,402,336.52,399.87s-15.8-3.77-15.8-3.77Z"/><path class="cls-15" d="M328.69,360.57a73.24,73.24,0,0,1-11.62-.77L313.44,394s4.46,1.5,11.55,3.29Z"/><path class="cls-5" d="M328.69,360.19a66.31,66.31,0,0,1-11.52-.75.37.37,0,0,0-.47.36l-3.18,29.9-.46,4.32a.38.38,0,0,0,.28.36c3.79,1.28,7.67,2.31,11.55,3.29a.38.38,0,0,0,.47-.36l3.25-32.16.46-4.58c.05-.48-.7-.48-.75,0l-3.24,32.16-.47,4.58.48-.37c-3.88-1-7.76-2-11.55-3.28l.27.36,3.18-29.9.46-4.32-.48.36a67.64,67.64,0,0,0,11.72.78A.38.38,0,0,0,328.69,360.19Z"/><path class="cls-5" d="M345.18,265.05a33.83,33.83,0,0,1,5.78,1.5,72.18,72.18,0,0,1,15.17,7.39,115.66,115.66,0,0,1,21.45,17.71,159.92,159.92,0,0,1,24.17,32c5.77,10.18,10.06,21.62,10.18,33.44a43,43,0,0,1-7.31,24.83,46,46,0,0,1-18.56,15.44c-8.91,4.17-18.76,5.3-28.5,5.35a164,164,0,0,1-34-3.81A193.56,193.56,0,0,1,314.45,394l-.91-.3.27.36,3.18-29.9.46-4.32-.48.36a58.81,58.81,0,0,0,9.47.75,213.2,213.2,0,0,0,30.4-1.76c9.09-1.09,18.14-2.56,27.14-4.27.48-.09.28-.82-.2-.73a334.64,334.64,0,0,1-43.12,5.72A136.61,136.61,0,0,1,320,359.8c-.95-.09-1.92-.18-2.86-.36a.37.37,0,0,0-.47.36l-3.18,29.9-.46,4.32a.38.38,0,0,0,.28.36c4.69,1.58,9.52,2.83,14.34,4a183.46,183.46,0,0,0,32.36,4.9c10.52.57,21.56.25,31.59-3.28A48.75,48.75,0,0,0,411.9,386.6,42.75,42.75,0,0,0,422.26,364c1.42-10.54-.91-21.21-5-30.91-5.41-12.79-13.82-24.45-22.82-35a129.91,129.91,0,0,0-22.95-21.44A82.64,82.64,0,0,0,354.25,267a37.18,37.18,0,0,0-8.61-2.6l-.46-.07c-.48-.06-.48.69,0,.75Z"/><path class="cls-5" d="M376.74,355.69a188.83,188.83,0,0,0-13.27-23.9c-.27-.4-.92,0-.65.38a188.89,188.89,0,0,1,13.28,23.9c.2.43.85.05.64-.38Z"/><path class="cls-5" d="M315.9,317.26a69.46,69.46,0,0,1-6.63-20.82,54.58,54.58,0,0,1,.15-19.66A40.36,40.36,0,0,1,319.83,257c.63-.65.75-.95,1.55-1.08l2.37-.37,7.48-1.18,6.87-1.09c.59-.09,1.19-.16,1.77-.28.28-.06-.07,0-.12-.05a4.08,4.08,0,0,1,.33.25c3.88,3.45,7.17,7.21,8.8,12.28,1.75,5.43,1.08,11.47-.56,16.86-4.05,13.33-15.5,23.09-26.58,30.69-2.08,1.43-4.21,2.8-6.35,4.14-.41.25,0,.9.38.64,12.62-7.84,26.26-17.74,32.1-32a34.65,34.65,0,0,0,2.73-15.47,25.22,25.22,0,0,0-8.29-16.24c-.61-.56-1.62-1.78-2.5-1.86a6.13,6.13,0,0,0-1.27.21l-2.91.46-14.4,2.27a1.82,1.82,0,0,0-1.4.74,42.79,42.79,0,0,0-3.9,4.5,39.77,39.77,0,0,0-5.37,9.8,48.22,48.22,0,0,0-2.7,20.6A70.22,70.22,0,0,0,315,317.21l.21.43C315.48,318.07,316.13,317.69,315.9,317.26Z"/><rect class="cls-9" x="305.18" y="315.58" width="20.79" height="34.83" rx="3.88"/><path class="cls-5" d="M322.09,350h-9.61c-1.14,0-2.28.06-3.41,0a3.65,3.65,0,0,1-3.51-4c0-7.12,0-14.24,0-21.36v-4.18c0-1.3,0-2.54,1-3.55,1.22-1.22,2.89-1,4.46-1H321.8a3.63,3.63,0,0,1,3.8,3.62c.1,2.61,0,5.24,0,7.85v12.49c0,2.2.1,4.42,0,6.62a3.59,3.59,0,0,1-3.51,3.5c-.48,0-.48.77,0,.75a4.34,4.34,0,0,0,4.26-4.29c0-.89,0-1.79,0-2.68V320.28a5.12,5.12,0,0,0-1-3.6c-1.19-1.38-2.77-1.48-4.45-1.48-3.83,0-7.67,0-11.51,0a4.37,4.37,0,0,0-4.44,3.34,12.24,12.24,0,0,0-.1,2.64v23.76a9.86,9.86,0,0,0,.18,2.82,4.4,4.4,0,0,0,4.45,3c3.85,0,7.71,0,11.57,0h1.08A.38.38,0,0,0,322.09,350Z"/><circle class="cls-18" cx="315.58" cy="326.04" r="5.03"/><rect class="cls-18" x="309.7" y="333.53" width="11.75" height="2.44"/><rect class="cls-18" x="310.82" y="338.53" width="9.51" height="1.77"/><path class="cls-15" d="M323.3,291.47s-10.87,3.34-16.5-12.91,1.17-23.12,14.54-28.26,29.27-3.74,42.21-1.48,16.38,9.43,16.85,15.2-3.74,15.79-5.92,15.32-12.13-9.75-21.53-2.53S330.62,290.06,323.3,291.47Z"/><path class="cls-5" d="M323.2,291.1a10.28,10.28,0,0,1-7.18-.88c-6.18-3-9-10.66-10.31-17-1.21-6-.23-12,4.42-16.23a29.16,29.16,0,0,1,7.65-4.82,51.54,51.54,0,0,1,11.85-3.87c8.93-1.75,18.19-1.36,27.16-.18,7.22.95,15.82,2,20.48,8.29,3.48,4.73,3.19,10.5,1.4,15.84a24.66,24.66,0,0,1-2,4.5c-.38.65-1.13,2.12-2,2.2-.65,0-1.59-.75-2.11-1.06-1.16-.69-2.31-1.38-3.51-2a18.08,18.08,0,0,0-9.09-2.22c-4.11.24-6.92,2.67-10.16,4.91A86.49,86.49,0,0,1,327.49,290a37.61,37.61,0,0,1-4.29,1.13c-.47.1-.27.82.2.73a51.15,51.15,0,0,0,10.08-3.34,96.6,96.6,0,0,0,12.18-6.27c2-1.22,4-2.51,5.86-3.88s3.69-2.81,6-3.46c3.8-1.06,7.72,0,11.15,1.71,1.26.63,2.47,1.36,3.68,2.08a6,6,0,0,0,2.12,1c1.95.21,3.34-3.33,3.92-4.66,2.34-5.33,3.47-11.48.8-16.89-3.22-6.5-10.42-8.86-17.1-10-9.25-1.53-18.75-2.41-28.11-1.3-7.76.92-16,3.32-22.38,8a16.4,16.4,0,0,0-7.15,14.38c.38,9.3,6.47,24.83,18.31,22.73a6.4,6.4,0,0,0,.63-.14C323.86,291.69,323.67,291,323.2,291.1Z"/><path class="cls-5" d="M321.82,201s-6.71,10.54-17.44,13.16-20.09.38-23.29-11.31,11.52-21.5,20.82-21.52c0,0-3.7-15.36,12.39-17.73,14.88-2.2,17.53,11.66,17.53,11.66s10.65-10.19,27-1.22,16.18,27.15,13.67,34c0,0,12.19,2,14.71,14.49s-2.23,18.22-13.44,22c0,0-7.87,1.82-10.87.13,0,0,6.91,10.84-4.31,17.06-12.85,7.13-22.09-6-27.18-10.83s6.31-23.9,7.61-28.51C339,222.34,322,217.63,321.82,201Z"/><path class="cls-3" d="M346.44,218.38a10.41,10.41,0,0,0-6,2l-.06-6.21c-.1-9.84-7.26-17.82-15.9-17.73l-13,.14c-8.64.09-15.63,8.21-15.53,18l.21,20.15c.1,9.84,7.26,17.81,15.9,17.72l7.51-.07.12,10.85a8.11,8.11,0,0,0,8.17,8l5.16-.05a8.13,8.13,0,0,0,8-8.18l-.13-12.26v-.69l-.12-12.26c0-.25,0-.49-.05-.73a10.29,10.29,0,1,0,5.73-18.74Z"/><path class="cls-5" d="M341.48,230.06c0-.22,0-.44,0-.65s0-.22,0-.33,0-.11,0-.16,0-.24,0-.17,0-.12,0-.16a1.18,1.18,0,0,0,0-.2c0-.15.06-.3.1-.45a5.2,5.2,0,0,1,.78-1.79,4.19,4.19,0,0,1,.68-.76,4.56,4.56,0,0,1,1-.63,6.73,6.73,0,0,1,3.48-.44.52.52,0,0,0,.52-.52.54.54,0,0,0-.52-.53,6.35,6.35,0,0,0-5.73,2,7,7,0,0,0-1.42,3.94,6.58,6.58,0,0,0,0,.89c.05.67,1.1.68,1.05,0Z"/><path class="cls-5" d="M322,220.94a2.93,2.93,0,1,1-3-2.9A2.92,2.92,0,0,1,322,220.94Z"/><path class="cls-5" d="M302.84,220.71a2.51,2.51,0,1,1-2.53-2.47A2.52,2.52,0,0,1,302.84,220.71Z"/><polygon class="cls-10" points="309.28 218.15 310.05 229.03 304.81 225.91 309.28 218.15"/><path class="cls-5" d="M313.2,236.25a4.14,4.14,0,0,1-8.27.1l-.37.37,7.88-.08h1.14a.38.38,0,0,0,0-.75l-7.89.08h-1.13a.39.39,0,0,0-.38.38,4.89,4.89,0,0,0,9.77-.1A.38.38,0,0,0,313.2,236.25Z"/><path class="cls-5" d="M304.38,214.13c-10.73,2.61-20.09.38-23.29-11.31s11.52-21.5,20.82-21.52c0,0-3.7-15.36,12.39-17.73,14.88-2.2,17.53,11.66,17.53,11.66l.28-.25.4,2.27,13.93,41.13-2.93.54a10.12,10.12,0,0,0-4.25,3.65S322,217.63,321.82,201C321.82,201,315.11,211.51,304.38,214.13Z"/><path class="cls-3" d="M313.2,273s3.83-7.08,8.82-9.14,23.69-2.63,27.32,4.83S324.72,285,324.72,285,313.65,279.64,313.2,273Z"/><rect class="cls-19" x="317.72" y="259.39" width="25.26" height="8.92" rx="4.05"/><path class="cls-15" d="M307.62,267.79s2.37,19.48,14.19,19.79,24-9.2,29.06-12.82c6.75-4.86,5.24-5.5,5.24-5.5s-5.7-8.66-12.89-5.13c-11.37,5.59-13.09,6.53-14.94,7.58s-4.85,2.78-4.85,2.78-1.16,1.65-2.84-.88-5.69-11-6.12-15.22C314.47,258.39,305.1,262.4,307.62,267.79Z"/><path class="cls-5" d="M318.81,277.82A143.63,143.63,0,0,1,332.22,270c5.29-2.85,10.69-5.48,16-8.24,3.42-1.76,7.49-3.6,10-6.64,2.09-2.55,1.42-5.31-.49-7.75-.3-.37-.83.16-.53.53a6.24,6.24,0,0,1,1.64,4,5.42,5.42,0,0,1-1.83,3.37c-2.87,2.85-6.88,4.65-10.44,6.45C338.29,266,330,270.1,322,274.93c-1.19.72-2.39,1.45-3.54,2.24-.39.27,0,.92.38.65Z"/><path class="cls-5" d="M313.8,256.29a37.59,37.59,0,0,0,1.4,6.89,31.21,31.21,0,0,0,6.35,12.18c.32.36.85-.18.53-.54a30.47,30.47,0,0,1-6.22-12.06,35.69,35.69,0,0,1-1.31-6.47c-.05-.48-.8-.48-.75,0Z"/><path class="cls-5" d="M185.27,405.2l86.36.16c9,0,13.59-6.94,10.35-15.54l-22.64-59.94c-3.25-8.59-13.15-15.58-22.11-15.59l-86.36-.16c-9,0-13.6,6.94-10.35,15.54l22.64,59.93C166.41,398.2,176.3,405.18,185.27,405.2Z"/><path class="cls-9" d="M198.3,355A9.65,9.65,0,0,0,207,361.9c3.8,0,6.06-3.08,5.05-6.88a9.64,9.64,0,0,0-8.72-6.91C199.55,348.11,197.29,351.19,198.3,355Z"/><rect class="cls-5" x="243.09" y="392.47" width="91.14" height="12.92" rx="2.54" transform="translate(576.59 798.38) rotate(-179.9)"/></g></g></svg>