<svg xmlns="http://www.w3.org/2000/svg" xmlns:xlink="http://www.w3.org/1999/xlink" viewBox="0 0 2671.27 1698.63"><defs><style>.cls-1{fill:#efecf7;}.cls-2{fill:#7979b2;}.cls-3{fill:#fe6e8d;}.cls-4{fill:#ef658a;}.cls-5{fill:#a8a1e2;}.cls-6{fill:#242c37;}.cls-7{fill:#efb284;}.cls-8{fill:#f8bd8c;}.cls-9{fill:#3d3c3b;}.cls-10{fill:#eea886;}.cls-11{fill:#383860;}.cls-12{fill:#2e2e51;}.cls-13{fill:#56548c;}.cls-14{fill:#c98462;}.cls-15{fill:#fff;}.cls-16{fill:#4d4d84;}.cls-17{fill:#d6d2cb;}.cls-18{fill:#5c5c8e;}.cls-19{fill:#e3dcd5;}.cls-20{fill:#6f5dc6;}.cls-21{fill:#755ccd;}.cls-22,.cls-23,.cls-24{fill-rule:evenodd;}.cls-22{fill:url(#linear-gradient);}.cls-23{fill:url(#linear-gradient-2);}.cls-24,.cls-25{fill:#3d3d6b;}.cls-26{fill:#9794d3;}</style><linearGradient id="linear-gradient" x1="3081.77" y1="466.08" x2="3312.54" y2="466.08" gradientTransform="translate(3863.36 1842.32) rotate(180)" gradientUnits="userSpaceOnUse"><stop offset="0" stop-color="#1b1464"/><stop offset="1" stop-color="#1b1464"/></linearGradient><linearGradient id="linear-gradient-2" x1="3281.88" y1="405.84" x2="3379.86" y2="405.84" xlink:href="#linear-gradient"/></defs><g id="Layer_2" data-name="Layer 2"><g id="Layer_1-2" data-name="Layer 1"><path class="cls-1" d="M2484.37,1689.31s439.84-569.8-30-874.69S2124.5,604.69,2009.54,364.78,1574.69-15.09,1179.83,169.85,475.08,319.79,410.1,324.79s-349.88,20-399.86,279.9,100,294.9,85,399.86S-.25,1184.49,10,1304.44s25.24,334.88,170.19,384.87Z"/><path class="cls-2" d="M2554.8,1698.63H31.5l.05-.06c148.31-170.19,447-133.65,649.05-123.55q120.87,6.06,242,7.1,12.69.14,25.39.2,18.6.12,37.2.13,12.33,0,24.67,0c194.24-.53,388.64-9,582.26-21.2,275.22-17.43,571.23-49.84,827.82,61.84q10.2,4.45,20.33,9.21A759.38,759.38,0,0,1,2554.8,1698.63Z"/><path class="cls-3" d="M1753.08,343.42H824a36.65,36.65,0,0,0-36.65,36.65v639.18A36.65,36.65,0,0,0,824,1055.9h346.62v100.71h235.85V1055.9h346.62a36.65,36.65,0,0,0,36.65-36.65V380.07A36.65,36.65,0,0,0,1753.08,343.42Z"/><path class="cls-4" d="M1789.72,380.07v639.19c0,20.24-14.62,36.65-32.65,36.65h-26.41c18,0,32.66-16.41,32.66-36.65V380.07c0-20.24-14.62-36.64-32.66-36.64h26.41C1775.11,343.43,1789.72,359.83,1789.72,380.07Z"/><path class="cls-1" d="M1714.88,432.14V969.31a34.45,34.45,0,0,1-34.45,34.45H896.65a34.45,34.45,0,0,1-34.45-34.45V432.14a34.45,34.45,0,0,1,34.45-34.45h783.78A34.46,34.46,0,0,1,1714.88,432.14Z"/><path class="cls-5" d="M1679,440.3V965.55c0,7.31-8.55,13.29-19,13.29H909.2c-10.44,0-19-6-19-13.29V440.3c0-7.3,8.55-13.28,19-13.28H1660C1670.46,427,1679,433,1679,440.3Z"/><rect class="cls-4" x="1400.23" y="1055.59" width="18.48" height="100.71"/><path class="cls-6" d="M1286.81,783.43Z"/><path class="cls-7" d="M1354.71,490.56s1.61,34.77,10.82,45.44c5.41,6.27-22.92,14.09-45.29,14.48-15.68.27-27.84-8.57-27.84-8.57s11.25-39.11,7.52-46.91S1354.71,490.56,1354.71,490.56Z"/><path class="cls-8" d="M1409.38,405.73a11.81,11.81,0,0,0-3.16.53c.55-10.16.52-23.3-1.69-30.42-10.54-34-42.42-49.65-76.25-49.92-33.52-.27-65.67,13.59-76.83,47-2.47,7.4-2,21.29-1.66,32.08a13,13,0,0,0,.92,26c.25,0,.49,0,.74-.06,15.26,44.91,38.27,70.14,75.83,70.44,38.27.31,55.69-30.9,75.86-71.58a12.24,12.24,0,0,0,7,2,13,13,0,0,0-.79-26Z"/><path class="cls-9" d="M1293.84,403.52c-.51-3-1.88-4.7-4.89-4.7-2.23,0-4.6,1.85-4.76,6.72a13.53,13.53,0,0,0,.26,2.91,10.27,10.27,0,0,0,.89,2.62,4.8,4.8,0,0,0,4.06,2.92,4,4,0,0,0,3.65-2.49,11.91,11.91,0,0,0,1-5.27,16.46,16.46,0,0,0-.25-2.71Z"/><path class="cls-9" d="M1361.46,403.31a8.72,8.72,0,0,1,1-3.16,4.3,4.3,0,0,1,7-.45,10,10,0,0,1,1.74,5.64,15.41,15.41,0,0,1-.2,3.18,11.82,11.82,0,0,1-.83,2.87,4.82,4.82,0,0,1-4,3.26c-1.66.13-3-1.14-3.73-2.64a14,14,0,0,1-1.17-5.74,18.47,18.47,0,0,1,.19-3Z"/><path class="cls-9" d="M1377.69,388.72c-2.64-2.55-6.77-3.86-10.45-4.37a27.9,27.9,0,0,0-6.13-.17c-3.1.27-7.21,1-7.45,4.11a2.65,2.65,0,0,0,.54,1.79c.93,1.21,2,1.42,3.71,1.25a20.77,20.77,0,0,1,6.34-.27,32.68,32.68,0,0,1,7.59,1.6c.51.21,1,.45,1.51.66,1.61.67,3.07.89,4.39-.24a4,4,0,0,0,.71-.83C1379.06,391.41,1379,390,1377.69,388.72Z"/><path class="cls-9" d="M1330.77,441.67h-6.53a6.23,6.23,0,0,1-5-2.45,6.3,6.3,0,0,1-1.13-5.37,187.28,187.28,0,0,0,4.23-23.1,1.54,1.54,0,1,1,3.06.37,189.65,189.65,0,0,1-4.3,23.5,3.15,3.15,0,0,0,.57,2.7,3.21,3.21,0,0,0,2.56,1.25h6.53a1.55,1.55,0,0,1,0,3.1Z"/><path class="cls-10" d="M1031.89,951.38s-9.4,21.44-18.4,18.75-22.37-1.9-26.56-1.44c-5.61.62-23.86-3.66-22.78,3.16s29.79,8.43,35.8,9.92c5.31,1.31-10.91,13.38-15.81,20.22-6.32,6.61-37.41,39.33-37.53,43.67-.13,4.83,2.36,6.8,6.13,3.21,3.07-2.92,26.66-26,35.29-34.49.19.25.39.49.59.74-8.38,12.55-34.52,51.88-35.37,55.14-.6,2.28,4,6.37,6.22,4.63,1.82-1.43,29.25-37.26,38.86-49.85l.28.23c-8.39,12.67-31.31,47.58-31.16,50.48.16,3.1,5.31,5.88,8.14,2.24,2.3-3,25.64-33.75,34.36-45.26l.66.29c-5.86,10.42-19.44,35.13-17.86,37.49,1.22,1.83,5,5.53,10.49-4.74s21-33,21.07-33.11c.23-.17.45-.36.67-.55,13.47-12.18,19-34.08,21.88-35.75s15.2-19.12,15.2-19.12Z"/><path class="cls-11" d="M1585.77,805.13c-2.23-7.25-5.49-14.09-7.88-21.27-3.32-10-6.78-20-10.31-30q-6.18-17.4-12.66-34.71-6.89-18.37-14.12-36.61-7.1-17.88-14.65-35.58c-4.56-10.65-9.28-21.24-14.29-31.7-4.06-8.45-8.28-16.83-13-24.91-3.13-5.33-6.46-10.88-10.87-15.26a13.64,13.64,0,0,0-3.86-2.9c-37-16.82-121.44-39.83-121.45-39.83-5.46-1.49-14.26,3.6-19.58,4.88-15.93,3.85-22.74,25-44.39-3.69,0,0-118.82,26.46-129,60.26S1139.88,707,1112.48,793.4c-16.38,51.65-99.64,169.31-99.64,169.31s11.09,8.18,22.58,16.1c12.31,8.5,25.06,16.72,25.06,14.27,0-.82,3.42-6.07,9.07-14.27,26.72-38.73,103.35-143.36,104.48-158.43,1.35-18.25,35.34-111.6,35.34-111.6s16.1,179.48,16.1,207.21c0,16.79-.67,44-1.19,62.83h249.59c1.25-4,.72-8.5-2.09-13.52-7.08-12.65-9.66-53.83-10-99.19l6-1.86q19-6,38-12.16c12.12-4,24.23-8,36.23-12.31,9.69-3.45,19.35-7,28.82-11,3-1.28,6.08-2.48,9-4a24.65,24.65,0,0,0,5.82-3.38C1590.2,817.31,1587.23,809.9,1585.77,805.13ZM1514,787.06c-2,4.93-25.39,15.22-51.84,25.48,1.16-51.55,4.08-96.06,5.3-96.66C1470.19,714.52,1518.76,775.35,1514,787.06Z"/><path class="cls-9" d="M1245.61,344.2s3.72,27.85,38.37,17.5,45.39-15.91,63.1-4,61.27-.23,59.38,33.3,2.93,14.69,2.93,14.69,16.52-6.16,7-42.24-61.92-79-104.89-67S1247.38,318.74,1245.61,344.2Z"/><path class="cls-9" d="M1241.57,403.88s-7.09-50.19,6.94-63,19.47,3.69,13.9,11.82-12.6,49.38-11.81,52.36c0,0-1.95-.9-8.13,3.28Z"/><path class="cls-9" d="M1328.07,476.11c-6.44,0-15.23-3.25-19.1-8.9a3,3,0,0,1-.62-2.07h0c.28-2.23,3.08-2.24,4.43-2.25h.33c8.69-.17,17.53-1,26.07-1.83l3.86-.37c2.68-.31,5.39-.48,6.42,1.21a2.67,2.67,0,0,1-.32,3.06c-4.15,6.22-12.21,10.69-20.05,11.14ZM1311.85,466c3.57,4.62,11.57,7.37,17.06,7a23.83,23.83,0,0,0,17.46-9.47,16.89,16.89,0,0,0-3,.16l-.46.05-3.46.33c-8.6.82-17.5,1.68-26.3,1.84h-.38C1312.58,466,1312.21,466,1311.85,466Z"/><path class="cls-1" d="M1408.83,539.55l-83,170.83s-24.17-5.15-27.15-7.45-37.1-161.07-37.1-161.07l24.4-6.72,20.25-5.58,12.19,16.51a1.63,1.63,0,0,1,.24.45h0a2,2,0,0,1,1.44.05,3.13,3.13,0,0,1,1-2l20-18.35,37.08,7.3Z"/><path class="cls-12" d="M1318.29,548.71l-11.15,11.61-17.57,18.29a2.06,2.06,0,0,1-3.55-1.43V529.67a2,2,0,0,1,.77-1.6l9.82-8a2.06,2.06,0,0,1,3,.38l6.71,9.08,12.19,16.51a1.63,1.63,0,0,1,.24.45h0A2.1,2.1,0,0,1,1318.29,548.71Z"/><path class="cls-12" d="M1378.26,536.94l-27.78,44a3.13,3.13,0,0,1-5.13.22l-15.15-20-9.42-12.41a3.08,3.08,0,0,1,.37-4.17l20-18.35,12.46-11.45a3.12,3.12,0,0,1,4.21,0L1377.72,533a3.16,3.16,0,0,1,.48.56A3.09,3.09,0,0,1,1378.26,536.94Z"/><path class="cls-3" d="M1331.4,560l-1.2,1.14L1319,571.78a2,2,0,0,1-3-.21l-8.91-11.24-.92-1.15a2,2,0,0,1,.3-2.83l11.58-9.48a2.29,2.29,0,0,1,.6-.35h0a2.09,2.09,0,0,1,2.08.46l10.6,10.12A2,2,0,0,1,1331.4,560Z"/><polygon class="cls-3" points="1317.86 561.72 1336.38 682.08 1304.98 747 1288.7 680.36 1317.86 561.72"/><path class="cls-12" d="M1263.69,540l40,200.44a1.32,1.32,0,0,1-2.39,1l-60.66-91.61a1.32,1.32,0,0,1,.11-1.6l18.35-20.82a1.32,1.32,0,0,0-.14-1.88L1226,598a1.31,1.31,0,0,1-.27-1.71l35.55-56.73A1.31,1.31,0,0,1,1263.69,540Z"/><path class="cls-12" d="M1401.41,532.54l-93.17,207.22a1.42,1.42,0,0,0,2.31,1.58l100.27-101.89a1.42,1.42,0,0,0,.16-1.8l-13.82-20.38a1.42,1.42,0,0,1,.45-2l43.37-26a1.42,1.42,0,0,0,.44-2l-37.54-54.87A1.41,1.41,0,0,0,1401.41,532.54Z"/><path class="cls-13" d="M1559.4,880.24l-114.27,79.61a22.46,22.46,0,0,1-31.27-5.59L1289.64,776a22.46,22.46,0,0,1,5.59-31.27l114.27-79.61a22.46,22.46,0,0,1,31.27,5.59L1565,849A22.46,22.46,0,0,1,1559.4,880.24Z"/><path class="cls-14" d="M1350.65,838.87s-11.55-.32-15.09-.83-1.2,7,2.91,8.43,12.18-7.6,12.18-7.6Z"/><path class="cls-10" d="M1343.9,894.05s5,1.22,7.51.68c0,0,4.41-1.33,7.6-2.08a22.09,22.09,0,0,1,2.49-.48c2.46-.24,7.9,0,13.63-2.29s25.1-12.18,25.1-12.18l-5.54-18-4.18-14.28s-32.77-8.72-38.33-7.25c-.54.15-1.08.31-1.57.5-4.59,1.7-7.29,4.9-9.6,6.06-.84.43-9,5.31-9.38,8.11-.6,3.88.57,6.81,2.57,8.61,0,0-.82,7.65,2,12,0,0-1,7,4.08,11.42,0,0-.22,7.26,3.6,9.23Z"/><path class="cls-11" d="M1383.61,840.77s-1.64,23,15.85,44.2c0,0,137.86-43,154.28-49.47s-59.67-208.63-59.67-208.63l-56,19.06,30.07,56.87s14.89,31.86,45.85,84.26c0,0-19,18.1-130.4,53.71Z"/><path class="cls-9" d="M1299,380.55c-3.39-1.42-7.72-1.13-11.32-.26a27.83,27.83,0,0,0-5.77,2.08c-2.79,1.38-6.34,3.57-5.44,6.54a2.62,2.62,0,0,0,1.16,1.47c1.31.79,2.36.6,3.91-.19a20.92,20.92,0,0,1,5.8-2.56,32.12,32.12,0,0,1,7.65-1.27c.55,0,1.1.05,1.65.06,1.75,0,3.18-.29,4-1.82a4.06,4.06,0,0,0,.36-1C1301.22,382.55,1300.68,381.29,1299,380.55Z"/><path class="cls-4" d="M1460.6,1201.12H1131.41a13,13,0,0,1-13-13v-23.24a13,13,0,0,1,13-13H1460.6a13,13,0,0,1,13,13v23.24A13,13,0,0,1,1460.6,1201.12Z"/><path class="cls-3" d="M1446.68,1201.12H1125.15a13,13,0,0,1-13-13v-23.24a13,13,0,0,1,13-13h321.53a13,13,0,0,1,13,13v23.24A13,13,0,0,1,1446.68,1201.12Z"/><path class="cls-15" d="M1333.14,1250.25a5.73,5.73,0,1,1-5.73-5.73,5.74,5.74,0,0,1,5.73,5.73Z"/><path class="cls-16" d="M1592.36,1541.12H1008.45c-38.57-37.49-42.74-85.47,0-113.7h583.91V1441h-18.5v84.87h18.5v15.22Z"/><path class="cls-15" d="M1573.86,1525.89H1019.38c-26.71-18.8-27.49-67.65,0-84.87h554.48v84.87Z"/><path class="cls-17" d="M1019.78,1525.89h-.4c-13.46-9.47-20.33-26.58-20.32-43.42,0-16.58,6.69-32.91,20.32-41.45h554.48v15.82h-540.4c-21.54,13.5-25.72,46.39-13.68,69.05Z"/><path class="cls-11" d="M1550.94,1638.61h18.5v15.22H985.52c-26.73-26-36.94-57-26.45-83,4.63-11.51,13.33-22,26.45-30.71h583.92v13.61h-18.5v84.87Z"/><path class="cls-13" d="M1639.26,1653.83H1055.35c-38.57-37.49-42.74-85.47,0-113.7h583.91v13.61h-18.5v84.87h18.5v15.22Z"/><path class="cls-15" d="M1620.76,1638.61H1066.29c-26.71-18.81-27.49-67.65,0-84.87h554.47v84.87Z"/><path class="cls-17" d="M1066.68,1638.61h-.4c-13.46-9.48-20.33-26.58-20.33-43.42,0-16.58,6.69-32.91,20.33-41.45h554.47v15.82h-540.4c-21.53,13.49-25.71,46.39-13.67,69Z"/><path class="cls-16" d="M1569.44,1314.57H985.53c-38.57-37.49-42.74-85.47,0-113.7h583.91v13.61h-18.5v84.87h18.5v15.22Z"/><path class="cls-18" d="M1639.26,1314.57H1055.35c-38.57-37.49-42.74-85.47,0-113.7h583.91v13.61h-18.5v84.87h18.5v15.22Z"/><path class="cls-15" d="M1620.76,1299.35H1066.29c-26.71-18.8-27.49-67.65,0-84.87h554.47v84.87Z"/><path class="cls-17" d="M1066.68,1299.35h-.4c-13.46-9.47-20.33-26.58-20.33-43.42,0-16.58,6.69-32.91,20.33-41.45h554.47v15.82h-540.4c-21.53,13.49-25.71,46.39-13.67,69Z"/><path class="cls-11" d="M1621,1428.08H1017.41a28.26,28.26,0,0,1-28.26-28.25v-58.62a28.26,28.26,0,0,1,28.26-28.26h603a8.69,8.69,0,0,1,8.69,8.69V1420a8,8,0,0,1-8,8.06Z"/><rect class="cls-13" x="1088.17" y="1312.94" width="54.9" height="115.13"/><path class="cls-19" d="M1543.05,1623.47H1158.71a3.34,3.34,0,0,1-3.33-3.33v-1.77a3.34,3.34,0,0,1,3.33-3.33h384.34a3.34,3.34,0,0,1,3.33,3.33v1.77A3.34,3.34,0,0,1,1543.05,1623.47Z"/><path class="cls-19" d="M1488.27,1600.72H1103.93a3.34,3.34,0,0,1-3.33-3.33V1595a3.34,3.34,0,0,1,3.33-3.33h384.34a3.34,3.34,0,0,1,3.33,3.33v2.42A3.33,3.33,0,0,1,1488.27,1600.72Z"/><path class="cls-19" d="M1525.53,1274.36H1141.19a3.34,3.34,0,0,1-3.33-3.33v-2.42a3.34,3.34,0,0,1,3.33-3.33h384.34a3.34,3.34,0,0,1,3.33,3.33V1271A3.34,3.34,0,0,1,1525.53,1274.36Z"/><path class="cls-19" d="M1534.09,1484H1149.75a3.34,3.34,0,0,1-3.33-3.33v-2.42a3.34,3.34,0,0,1,3.33-3.33h384.34a3.34,3.34,0,0,1,3.33,3.33v2.42A3.33,3.33,0,0,1,1534.09,1484Z"/><path class="cls-5" d="M764,0l265.5,20.67A32.6,32.6,0,0,1,1062,53.26l-20.67,130.1A32.59,32.59,0,0,1,1008.78,216l-12.53.77h0s-7.44,28.06,7.15,42.64c0,0-43.46-10.5-50.47-40L784.62,229.73A32.59,32.59,0,0,1,752,197.14L731.36,32.59A32.6,32.6,0,0,1,764,0Z"/><path class="cls-1" d="M796,86.68a6.7,6.7,0,0,0,6.69,6.69h188a6.69,6.69,0,0,0,0-13.38h-188A6.68,6.68,0,0,0,796,86.68Z"/><path class="cls-1" d="M796,114.87a6.7,6.7,0,0,0,6.69,6.69h188a6.69,6.69,0,0,0,0-13.38h-188a6.69,6.69,0,0,0-6.68,6.69Z"/><path class="cls-1" d="M796,143.07a6.69,6.69,0,0,0,6.69,6.69h188a6.69,6.69,0,0,0,0-13.38h-188a6.69,6.69,0,0,0-6.68,6.69Z"/><polygon class="cls-20" points="628.88 1253.06 681.96 1353.5 610.22 1347.76 628.88 1253.06"/><path class="cls-9" d="M519.57,1081.42c-.57,0-1.15,0-1.72,0a42.59,42.59,0,0,0-4.65.48,50.89,50.89,0,0,0-14.79,4.68,48.65,48.65,0,0,0-8.51,5.38,49.52,49.52,0,0,0-8.17,8.2,57,57,0,0,0-7,11.6,74.3,74.3,0,0,0-5,15.6,110.33,110.33,0,0,0-2.21,20.19c-.06,2.47.05,4.93.08,7.4a13.18,13.18,0,0,1-.34,4.16,18.51,18.51,0,0,1-3.17,6,20.43,20.43,0,0,1-7.49,5.85c-9.67,4.5-41.16,13.27-43.86,54.65s-4.5,51.28-19.79,59.38-10.8,29.69,4.5,39.58,252.8-5.4,252.8-5.4,24.29-40.93-9-72.42S626.85,1207.16,621,1182s-27.89-27-28.34-39.14S590.87,1076.7,519.57,1081.42Z"/><path class="cls-10" d="M582.92,1191.34c-7.4,25.92-28.31,22-53.33,14.29s-39.31-34.89-31.91-60.82,33.66-40.74,58.68-33.07,33.95,53.67,26.56,79.6Z"/><path class="cls-9" d="M535.56,1100.38s18.7,31.85-14.31,48.79-23.79,44.29-23.79,44.29-18.14-7.64-14.32-38.19-5.73-39.14,17.18-47.73S535.56,1100.38,535.56,1100.38Z"/><path class="cls-10" d="M557.46,1201.1s-6.24,20.76,2.13,26.49-37.64,4.53-37.64,4.53-3.71-24.74,4-36S557.46,1201.1,557.46,1201.1Z"/><path class="cls-10" d="M508,1180.57a7.09,7.09,0,1,1-7.09-7.09A7.08,7.08,0,0,1,508,1180.57Z"/><path class="cls-9" d="M535.17,1163a4,4,0,1,1-4-4A4,4,0,0,1,535.17,1163Z"/><circle class="cls-9" cx="568.73" cy="1142.83" r="3.83"/><path class="cls-9" d="M533.53,1152.2c0,.16-5.19,1.66-5.69,1.84-3,1.08-6.1,2.25-8.3,4.68a12.13,12.13,0,0,0-2.09,3.65c-.51,1.23-.92,2.93-1.83,3.89a3.65,3.65,0,0,1,0-1.32,30.35,30.35,0,0,1,1.06-7c1-3.11,4.18-5.78,6.9-7.31S533.18,1147.07,533.53,1152.2Z"/><path class="cls-9" d="M556.81,1141.16c.14.09,4-3.69,4.41-4,2.41-2.06,5-4.19,8.17-4.9a12.15,12.15,0,0,1,4.21,0c1.32.17,3,.65,4.29.34a3.81,3.81,0,0,0-1.13-.69,29.58,29.58,0,0,0-6.65-2.56c-3.21-.65-7.09.78-9.76,2.39S552.52,1138.32,556.81,1141.16Z"/><path class="cls-9" d="M473.47,1123.61c-2.16,6.8-4.18,13.62-5.76,20.56q-1.18,5.2-2.09,10.47l-.44,2.63-.21,1.32c-.09.46-.23,1-.35,1.44a10.32,10.32,0,0,1-3.46,4.62,23.87,23.87,0,0,1-4.74,2.87c-1.65.78-3.32,1.47-5,2.1s-3.38,1.22-5.07,1.81l-2.53.88c-.83.31-1.63.61-2.43,1a44,44,0,0,0-8.91,5.64,63.46,63.46,0,0,0-7.74,7.28h0a.38.38,0,0,1-.54,0,.39.39,0,0,1,0-.53,64.77,64.77,0,0,1,7.64-7.63,43,43,0,0,1,9.05-6c.82-.39,1.69-.73,2.52-1.06l2.52-.93c1.68-.62,3.35-1.23,5-1.89s3.28-1.35,4.84-2.13a22.08,22.08,0,0,0,4.37-2.74,8.71,8.71,0,0,0,2.84-3.88c.08-.39.18-.75.26-1.16l.21-1.33.44-2.65c.61-3.54,1.29-7.06,2.08-10.57s1.68-7,2.66-10.44,2.1-6.86,3.24-10.26a.88.88,0,0,1,1.11-.55A.87.87,0,0,1,473.47,1123.61Z"/><path class="cls-21" d="M519.59,1219.1c9.93,2.39,29.72,6.88,41.29,7.73a6,6,0,0,1,5.59,6v4s56.59,5.24,62.4,16.23,13,191.16,13,191.16h-194l13.58-191.16a219,219,0,0,1,51-11.39l.81-17.78A5.15,5.15,0,0,1,519.59,1219.1Z"/><path class="cls-20" d="M534.29,1405.19q-9.37,15.66-18.76,31.33c-1.57,2.64-44.72-8.65-66.14-14.22-5.59-1.46-9.69-2.53-11.22-2.86l-38.67-8.54c-9.89-2.18-21.6-3.3-29.92-9.54-4.91-3.71-8.52-9.61-8.12-15.77.33-5.24,3.38-9.85,6.35-14.19,28.78-42.56,63.5-76.71,93.61-118.35l-6.57,92.58c-5.09,6-19.37,23.39-20.46,23.39q9.14,3.38,18.32,6.68Q493.42,1390.63,534.29,1405.19Z"/><path class="cls-10" d="M558.57,1434.61H517l0-.52,15.31-25.59.31,0c11.09,2.4,21.68,7,23.45,14.91Z"/><path class="cls-22" d="M739,1444.21H558.08c-5.17,0-8.29-4.22-7-9.39l30.47-117.16c1.34-5.17,6.67-9.39,11.84-9.39H774.32c5.17,0,8.29,4.23,6.95,9.39L750.8,1434.82c-1.35,5.17-6.67,9.39-11.84,9.39Z"/><path class="cls-23" d="M573.74,1444.21H491.23a7.75,7.75,0,0,1-7.73-7.73h0a7.75,7.75,0,0,1,7.73-7.73h82.51a7.75,7.75,0,0,1,7.74,7.73h0a7.76,7.76,0,0,1-7.74,7.73Z"/><path class="cls-24" d="M743.79,1444.21H568.25c-5.17,0-8.3-4.23-7-9.39l30.47-117.16c1.34-5.17,6.67-9.39,11.84-9.39H779.15c5.17,0,8.3,4.22,7,9.39l-30.47,117.16c-1.34,5.17-6.67,9.39-11.84,9.39Z"/><path class="cls-9" d="M556.71,1172.63a.65.65,0,0,1-.42-1.15,13,13,0,0,1,1.09-.79,8,8,0,0,0,1.2-.91c.87-.85.85-1.62-.07-2.57l-1.31-1.31c-1.48-1.45-2.22-2.17-5.77-7.23a.65.65,0,0,1,1.07-.75c3.48,5,4.19,5.66,5.62,7,.38.37.8.78,1.34,1.33,1.42,1.46,1.43,3.07,0,4.42a9.14,9.14,0,0,1-1.39,1.06,10.49,10.49,0,0,0-1,.7A.7.7,0,0,1,556.71,1172.63Z"/><path class="cls-9" d="M557.76,1192.31a22.8,22.8,0,0,1-7.64-1.31.74.74,0,0,1-.41-1,.74.74,0,0,1,1-.41c.11.05,11.36,4.41,18.86-3.76a.74.74,0,0,1,1.09,1A16.91,16.91,0,0,1,557.76,1192.31Z"/><path class="cls-9" d="M621.39,1200.37a41.64,41.64,0,0,0,2.53,11.45,40.92,40.92,0,0,0,5.72,10.27A54.7,54.7,0,0,0,648,1237a1,1,0,0,1-.93,1.82,57,57,0,0,1-19.43-15.18,43.63,43.63,0,0,1-6.3-10.81,44.16,44.16,0,0,1-3-12.19,1.5,1.5,0,1,1,3-.29S621.39,1200.36,621.39,1200.37Z"/><path class="cls-9" d="M531.17,1111.28s50.87,11.77,55.49,52.58C586.66,1163.87,591.69,1096.47,531.17,1111.28Z"/><path class="cls-16" d="M817.61,1583.52H245.52c-37.79-50-41.87-113.9,0-151.53H817.61v18.14H799.49v113.11h18.12v20.28Z"/><path class="cls-18" d="M886,1583.52H313.93c-37.79-50-41.88-113.9,0-151.53H886v18.14H867.89v113.11H886v20.28Z"/><path class="cls-15" d="M867.89,1563.24H324.64c-26.17-25.06-26.94-90.16,0-113.11H867.89v113.11Z"/><path class="cls-17" d="M325,1563.24h-.39c-13.19-12.63-19.92-35.42-19.92-57.87,0-22.09,6.55-43.86,19.92-55.24H867.89v21.08H338.42c-21.1,18-25.19,61.83-13.39,92Z"/><path class="cls-19" d="M797,1511.72H419.32a4.77,4.77,0,0,1-4.75-4.75v-2a4.77,4.77,0,0,1,4.75-4.75H797a4.77,4.77,0,0,1,4.75,4.75v2A4.77,4.77,0,0,1,797,1511.72Z"/><path class="cls-19" d="M740.14,1548.17H362.44a4.77,4.77,0,0,1-4.75-4.75v-2a4.77,4.77,0,0,1,4.75-4.75h377.7a4.77,4.77,0,0,1,4.75,4.75v2A4.76,4.76,0,0,1,740.14,1548.17Z"/><path class="cls-5" d="M663.38,882.35,542.06,891.8a14.89,14.89,0,0,0-14.89,14.89l9.45,59.45A14.89,14.89,0,0,0,551.51,981l5.73.35h0s3.4,12.82-3.27,19.49c0,0,19.86-4.8,23.06-18.27l76.91,4.73a14.89,14.89,0,0,0,14.89-14.89l9.45-75.19a14.91,14.91,0,0,0-14.9-14.9Z"/><path class="cls-15" d="M581.79,938a8.08,8.08,0,1,1-8.08-8.08,8.08,8.08,0,0,1,8.08,8.08Z"/><path class="cls-15" d="M607.32,936.91a8.08,8.08,0,1,1-8.08-8.08,8.08,8.08,0,0,1,8.08,8.08Z"/><path class="cls-15" d="M632.86,935.79a8.08,8.08,0,1,1-8.08-8.08,8.08,8.08,0,0,1,8.08,8.08Z"/><path class="cls-9" d="M2154.17,1154.47c-20.76-32.44-41.57-102.81-41.57-102.81l-33.73-3.34v-1.68l-3.09.84-3.08-.84v1.68l-54.37,14.11s-1.81,61.23-22.57,93.67c-20.52,32.05-5.79,72.1,80,66.2,85.82,5.89,98.91-35.78,78.39-67.83Z"/><path class="cls-9" d="M2115.09,1067.28c0,27.9-21.71,50.51-48.49,50.51s-48.49-22.61-48.49-50.51,21.71-46.87,48.49-46.87,48.49,19,48.49,46.87Z"/><path class="cls-8" d="M2065,1036.81c-41.89-.72-38.29,36.34-38.29,36.34s-1.62,19.6,4.2,36.2c2.94,8.38,6.69,12.87,18.46,21-.17,2.75-1.68,19.79-2.51,33.08a82.09,82.09,0,0,0,.18,13.09s14.61.66,38.57-.61l-.52-5.9-3.69-7.68-.1-12.33-.86-19,1.88-1.67c8.54-6.33,14.47-13.13,17.49-19.91,3.78-8.47,4.59-21.66,4.59-36.33C2104.37,1073.15,2106.87,1037.53,2065,1036.81Z"/><path class="cls-9" d="M2031.51,1037s14.58,29.54,77.57,31c0,0,6.81-28-25.48-39.06s-52.09,8.06-52.09,8.06Z"/><path class="cls-9" d="M2022.56,1072.94s19.44-5.71,22-37.83c0,0-19.69,3-22,37.83Z"/><path class="cls-9" d="M2053.37,1078c0,.13-4.82-.51-5.29-.54-2.81-.2-5.77-.36-8.42.76a10.78,10.78,0,0,0-3,2.12,11.59,11.59,0,0,1-2.85,2.4,3,3,0,0,1,.43-1,25.19,25.19,0,0,1,3.34-5.12c1.92-2.06,5.45-3,8.2-3.29s9.1.6,7.58,4.71Z"/><path class="cls-9" d="M2077.91,1078.23c.06.13,4.78-.81,5.25-.87,2.79-.37,5.74-.73,8.45.23a10.81,10.81,0,0,1,3.12,1.92,11,11,0,0,0,3,2.21,3.05,3.05,0,0,0-.49-1,24.67,24.67,0,0,0-3.66-4.89c-2-1.94-5.63-2.7-8.39-2.77s-9.05,1.18-7.28,5.18Z"/><path class="cls-8" d="M2033.53,1094.24a6.42,6.42,0,1,1-6.42-6.42A6.42,6.42,0,0,1,2033.53,1094.24Z"/><path class="cls-8" d="M2110.51,1094.24a6.42,6.42,0,1,1-6.42-6.42A6.42,6.42,0,0,1,2110.51,1094.24Z"/><path class="cls-9" d="M2044.68,1090.06a12.63,12.63,0,0,1-7.28-2.41,1.23,1.23,0,0,1,1.54-1.91,9.5,9.5,0,0,0,11.38,0,1.23,1.23,0,1,1,1.41,2A12,12,0,0,1,2044.68,1090.06Z"/><path class="cls-9" d="M2085.13,1090.06a12.63,12.63,0,0,1-7.28-2.41,1.23,1.23,0,0,1,1.54-1.91h0a9.52,9.52,0,0,0,11.38,0,1.23,1.23,0,1,1,1.41,2A12.09,12.09,0,0,1,2085.13,1090.06Z"/><path class="cls-16" d="M2337,1527.5h-619.4c-40.91-39.76-45.33-90.66,0-120.61H2337v14.44h-19.62v90H2337v16.14Z"/><path class="cls-18" d="M2411,1527.5h-619.4c-40.91-39.76-45.34-90.66,0-120.61H2411v14.44h-19.63v90H2411v16.14Z"/><path class="cls-15" d="M2391.4,1511.35H1803.23c-28.33-19.95-29.16-71.76,0-90H2391.4v90Z"/><path class="cls-17" d="M1803.64,1511.35h-.42c-14.28-10-21.57-28.2-21.56-46.06,0-17.59,7.1-34.91,21.56-44h588.17v16.78H1818.14c-22.84,14.31-27.27,49.21-14.5,73.25Z"/><path class="cls-3" d="M2391.69,1647.9H1751.38a30,30,0,0,1-30-30v-62.19a30,30,0,0,1,30-30H2391a9.22,9.22,0,0,1,9.22,9.22v104.36a8.55,8.55,0,0,1-8.55,8.55Z"/><rect class="cls-4" x="1826.44" y="1525.77" width="58.24" height="122.13"/><path class="cls-19" d="M2330.53,1489h-475.9a3.34,3.34,0,0,1-3.33-3.33v-3.75a3.34,3.34,0,0,1,3.33-3.33h475.9a3.34,3.34,0,0,1,3.33,3.33v3.75A3.34,3.34,0,0,1,2330.53,1489Z"/><path class="cls-4" d="M1998.15,1168.13c-21.64,3.09-73.41,124.67-58,152.48s100.45,60.27,100.45,60.27L2036,1333s-58.21-24.73-53.58-40.18,38.12-73.16,38.12-73.16l-22.4-51.5Z"/><path class="cls-4" d="M2201,1320.62c-15.46,27.82-100.46,60.28-100.46,60.28l4.64-47.91s58.21-24.74,53.57-40.19c-1.43-4.78-5.62-13.6-10.73-23.5-11.4-22.12-27.38-49.65-27.38-49.65l22.35-51.51a10.33,10.33,0,0,1,4,1.66C2170.4,1184.88,2215.59,1294.39,2201,1320.62Z"/><path class="cls-25" d="M2190.17,1410.75H1964.91a12,12,0,0,1-12-12V1281.3a12,12,0,0,1,12-12h213.26a12,12,0,0,1,12,12v129.45Z"/><path class="cls-25" d="M2055.66,1486.22s-4.2,4-16.55,9.19c-12.71,5.34-37.84,15.28-34.07,26.24,5.06,14.73,22.78,13.66,34.53,10.13,25.47-7.65,52-25.61,52-25.61l-35.88-20Z"/><path class="cls-26" d="M2086.11,1447.76c43.07-31.45,65.58-54.67,113.93-84,11.5-7,19.38-9.08,39.34-1.25,17,6.67,15.17,35.9,5.9,48.09-27.82,36.57-135,87.06-156.69,94.71-9.34,3.29-42.38-24.52-29-37.84,6.62-6.56,14.84-11.16,26.48-19.66Z"/><path class="cls-25" d="M2066.25,1508.32s10.5,13.88,22.71,23.33c14.6,11.29,24.67,15,36.53,9.51,17.19-8,1.38-24.86-12-38.21-19.77-19.77-33.92-28-33.92-28l-13.35,33.34Z"/><path class="cls-8" d="M2068.44,1467l18.38,15.19s6.38,5.17,9.6,11.2c6,11.19-14.7,33.89-28.14,20.54s-25.44-27.74-25.44-27.74l25.6-19.19Z"/><path class="cls-26" d="M2013.66,1491c-50.07-25.2-80.76-34.26-112.94-79.6-8.19-11.55-11.48-30.65-8.29-40.08,3.92-11.62,20.87-18.57,40.82-13.81,16.76,4,129.21,92.1,146.77,108.71,7.57,7.15-15.49,42.94-34.38,36.78-9.3-3-18.44-5.18-32-12Z"/><path class="cls-3" d="M2152.35,1269.3H1993.7l4.45-101.16H2143a10.33,10.33,0,0,1,4,1.66Z"/><path class="cls-3" d="M2080,1145.65c2.78,0,4.14-.14,5.16,2.44,1.14,2.87,2.49,8.27,10.68,9.78,14.14,2.61,39.57,3.57,50.07,11.93a3.26,3.26,0,0,1,1,3.57l-6.19,19.21a3.34,3.34,0,0,1-3.08,2.31l-130.59,3.41a3.34,3.34,0,0,1-3.35-2.66l-4.74-23.13a3.32,3.32,0,0,1,2.57-3.92c7.47-1.57,26.13-7.59,39.26-10.66a2.76,2.76,0,0,0,2.3-2.58l1.36-6.74a3.33,3.33,0,0,1,3.31-2.95H2080Z"/><path class="cls-9" d="M2014.54,1108.69c.68.5.59.86.49,1.21l-.27,1c-.19.69-.4,1.38-.62,2-.44,1.35-.93,2.68-1.45,4-1,2.62-2.17,5.18-3.29,7.72-2.22,5.1-4.45,10.23-7,15.22-1.26,2.5-2.54,5-3.93,7.43-.7,1.22-1.43,2.43-2.22,3.61s-1.58,2.29-2.33,3.45c-3,4.58-5.86,9.44-6.7,14.83h0a.5.5,0,0,1-1-.12,25.92,25.92,0,0,1,2.26-8.2,63.24,63.24,0,0,1,4-7.46c.73-1.19,1.52-2.38,2.25-3.52s1.41-2.34,2.06-3.55c1.3-2.42,2.51-4.92,3.69-7.42,2.36-5,4.59-10.08,6.75-15.22,1.1-2.56,2.21-5.1,3.2-7.66.49-1.28,1-2.57,1.37-3.86.21-.65.39-1.3.57-2l.25-1c.05-.33.11-.65.94-.83h0A1.31,1.31,0,0,1,2014.54,1108.69Z"/><path class="cls-9" d="M2066.45,1117.6a18.59,18.59,0,0,1-6.61-1.21.85.85,0,1,1,.66-1.56c.38.16,9.36,3.85,15.46-3.12a.85.85,0,1,1,1.28,1.12A13.85,13.85,0,0,1,2066.45,1117.6Z"/><path class="cls-9" d="M2064.55,1095.48h-.08a.5.5,0,0,1-.41-.58,37.15,37.15,0,0,0,.52-8.06.49.49,0,0,1,.49-.51h0a.51.51,0,0,1,.5.49,39.33,39.33,0,0,1-.53,8.25A.52.52,0,0,1,2064.55,1095.48Z"/><path class="cls-5" d="M2107.52,885a39.13,39.13,0,1,0-69.73,24.39,41.91,41.91,0,0,1,9.45,26.12v8.62a9.48,9.48,0,0,0,9.48,9.48h23.33a9.48,9.48,0,0,0,9.48-9.48v-8.62a41.86,41.86,0,0,1,9.43-26.09A38.94,38.94,0,0,0,2107.52,885Z"/><path class="cls-13" d="M2084,974.55H2052.8a3.46,3.46,0,0,1-3.46-3.46v-9.21a3.46,3.46,0,0,1,3.46-3.46H2084a3.46,3.46,0,0,1,3.46,3.46v9.21A3.46,3.46,0,0,1,2084,974.55Z"/><path class="cls-1" d="M2070.34,938a2,2,0,0,1-1.53-.71c-3.88-4.56-7.83-14.43-5.14-21.07a18.9,18.9,0,0,1,3.8-5.43,15.52,15.52,0,0,0,3-4.1c2-4.76-1-10.51-3.67-15.58-.68-1.3-1.29-2.48-1.82-3.62-1.24-2.67-2.85-6.73-2.41-11,.38-3.8,2.77-8.22,7.22-9.53a2,2,0,0,1,1.52.17,2,2,0,0,1-.39,3.67c-2.24.66-4.07,3.22-4.36,6.09-.33,3.28,1,6.65,2.06,8.9.5,1.09,1.11,2.24,1.74,3.46,3,5.85,6.5,12.47,3.82,19a18.91,18.91,0,0,1-3.7,5.24,15.68,15.68,0,0,0-3.07,4.26c-2,4.84,1.35,13.3,4.49,17a2,2,0,0,1,.47,1.46,2,2,0,0,1-.7,1.36A2.08,2.08,0,0,1,2070.34,938Zm-.29-70.06Z"/></g></g></svg>